<svg width="70" className='text-white' height="70" viewBox="0 0 62 62" fill="none" xmlns="http://www.w3.org/2000/svg">
<path d="M31.0003 10.4851C29.0646 10.4851 27.2074 11.2546 25.8383 12.6233C25.2688 13.1925 24.8034 13.8464 24.4537 14.5552C23.3783 13.8332 22.1065 13.4391 20.7952 13.4363H20.7935C19.046 13.436 17.3693 14.1303 16.1338 15.3658C14.8984 16.6013 14.204 18.278 14.204 20.0255V20.0258C14.2036 21.7731 14.898 23.45 16.1338 24.6855C16.3975 24.9495 16.6819 25.1885 16.9822 25.4017C12.1184 26.632 8.52539 31.0329 8.52539 36.2827V38.3402C8.52539 38.7682 8.87241 39.1152 9.30039 39.1152H42.7281H42.7278H42.7292V39.1155H52.7005V39.1152C53.1285 39.1152 53.4755 38.7682 53.4755 38.3402V36.2827C53.4755 31.0328 49.8822 26.6319 45.018 25.4017C45.3183 25.1889 45.6024 24.9495 45.8664 24.6855C47.1019 23.45 47.7963 21.7734 47.7963 20.0258C47.7966 18.2786 47.1022 16.6017 45.8664 15.3662C44.6309 14.1307 42.9539 13.4363 41.2067 13.4367H41.2064H41.2046C39.8937 13.4367 38.6219 13.8335 37.5469 14.5552C37.1971 13.8463 36.7318 13.1927 36.1626 12.6236C34.7939 11.2549 32.9363 10.4854 31.0006 10.4854L31.0003 10.4851ZM31.0003 12.0351C32.5258 12.0351 33.9879 12.6406 35.0663 13.7194C35.6981 14.3511 36.1676 15.1147 36.4482 15.9454C36.4544 15.9814 36.4631 16.0167 36.4745 16.0517C36.6329 16.5457 36.7257 17.0588 36.7475 17.5771V17.7854C36.7475 17.9459 36.7475 18.1048 36.727 18.2629C36.6188 19.523 36.0977 20.7169 35.2373 21.6559L35.2369 21.6556C35.2131 21.6822 35.1913 21.7103 35.1715 21.7397C35.1362 21.777 35.0989 21.8144 35.0632 21.8514C34.0381 22.8766 32.6663 23.4744 31.2229 23.5312C31.2025 23.5308 31.18 23.5305 31.1596 23.5301C31.1056 23.5295 31.0513 23.5291 30.9973 23.5291C30.9226 23.5291 30.8461 23.5298 30.7717 23.5291C29.3283 23.4731 27.9568 22.8745 26.9317 21.8494C26.8905 21.8082 26.8497 21.7674 26.8106 21.7241L26.8103 21.7244C26.7937 21.7009 26.7757 21.6788 26.7563 21.6573C25.7878 20.599 25.2502 19.2175 25.2485 17.783C25.2492 17.1924 25.3399 16.6057 25.5201 16.0431C25.5271 16.0247 25.5333 16.006 25.5388 15.987C25.8177 15.1393 26.2924 14.3602 26.9352 13.7174C28.0137 12.6389 29.4758 12.0331 31.0012 12.0331L31.0003 12.0351ZM41.2073 14.9863C42.5442 14.9863 43.825 15.517 44.7703 16.4619C45.7155 17.4071 46.2462 18.6887 46.2462 20.0258C46.2466 21.3627 45.7155 22.6442 44.7703 23.5894C43.8251 24.5347 42.5438 25.0654 41.207 25.0654C39.3007 25.0654 37.578 23.9907 36.7249 22.3155C37.6196 21.1852 38.1611 19.8123 38.2769 18.3713C38.2956 18.1776 38.3011 17.9828 38.3011 17.7873C38.3008 17.696 38.3011 17.6046 38.3011 17.5143C38.2825 17.0268 38.2153 16.5455 38.1022 16.0771C38.9848 15.3796 40.0791 14.9945 41.2129 14.9921L41.2073 14.9863ZM20.7925 14.9863C21.9266 14.9863 23.0213 15.3742 23.9039 16.072C23.7697 16.6287 23.7001 17.2033 23.7001 17.7853C23.7001 19.4377 24.2606 21.0331 25.2761 22.3159C24.4229 23.9915 22.6999 25.0637 20.7932 25.0655H20.7929C19.456 25.0658 18.1745 24.5347 17.2293 23.5899C16.284 22.6443 15.7533 21.3631 15.7537 20.0259H15.754C15.7537 18.689 16.2844 17.4076 17.2296 16.462C18.1749 15.5168 19.456 14.9864 20.7926 14.9864L20.7925 14.9863ZM35.5901 23.4618C35.9444 24.0417 36.3828 24.5572 36.8858 24.9949C36.1918 24.6243 35.4583 24.3174 34.6937 24.0821C35.0064 23.8995 35.3061 23.6915 35.5901 23.4621V23.4618ZM26.4106 23.4621C26.6946 23.6919 26.9942 23.8988 27.3066 24.0821C26.5624 24.3112 25.848 24.608 25.1706 24.9651C25.1519 24.9827 25.1332 24.9855 25.1145 24.9948C25.6172 24.5572 26.0552 24.042 26.4095 23.4625L26.4106 23.4621ZM31.7753 25.1056C34.0149 25.2606 36.0624 26.0771 37.7238 27.3649C37.7425 27.3825 37.7591 27.3912 37.776 27.406C38.1033 27.6628 38.4151 27.9378 38.7106 28.2295C38.7292 28.2471 38.7424 28.2592 38.7573 28.2762C38.8656 28.3841 38.9714 28.4948 39.0749 28.6073C39.0936 28.6249 39.1046 28.6388 39.1195 28.6561C39.2371 28.7848 39.3517 28.918 39.4631 29.0529C39.4817 29.0706 39.4911 29.0865 39.5042 29.1034C39.5323 29.137 39.5582 29.1706 39.5862 29.2058C39.6049 29.2235 39.6143 29.2394 39.6274 29.2581C39.7225 29.3792 39.8142 29.5017 39.9038 29.6259C39.9225 29.6435 39.9298 29.6611 39.9412 29.6802C39.9786 29.7345 40.0177 29.7881 40.055 29.8424C40.0793 29.8777 40.1035 29.9151 40.1277 29.9525C40.8082 30.9759 41.3207 32.1225 41.6269 33.3534C41.6269 33.377 41.6455 33.3984 41.6455 33.4188C41.6642 33.4842 41.6774 33.5513 41.6922 33.6181C41.6922 33.6416 41.7109 33.6631 41.7109 33.6852C41.7296 33.7748 41.7483 33.8641 41.7649 33.9534C41.7649 33.9769 41.7649 33.9983 41.7836 34.0205C41.903 34.673 41.9663 35.3463 41.9663 36.0351V37.5692L20.0617 37.5678V36.0337C20.0617 36.0102 20.062 35.987 20.062 35.9628C20.0994 30.1752 24.5477 25.4999 30.2389 25.1084V30.8368C30.2354 31.0444 30.3157 31.2447 30.4617 31.3925C30.6073 31.5406 30.8059 31.6236 31.0135 31.6236C31.2211 31.6236 31.42 31.5406 31.5657 31.3925C31.7117 31.2447 31.792 31.0444 31.7885 30.8368L31.7753 25.1056ZM19.7491 26.6093C20.6642 26.6093 21.5465 26.7345 22.3821 26.9684C19.9886 29.2449 18.4984 32.4616 18.4984 36.031V37.5651H10.0754V36.2828C10.0754 30.9104 14.3766 26.6091 19.7492 26.6091L19.7491 26.6093ZM42.2516 26.6093C47.624 26.6093 51.9253 30.9105 51.9253 36.283V37.5653H43.5024V36.0312C43.5024 36.0049 43.502 35.9769 43.502 35.951C43.4799 32.4136 41.9939 29.2286 39.6187 26.9689C40.4542 26.735 41.3365 26.6098 42.2517 26.6098L42.2516 26.6093Z" fill="#000101"/>
</svg>
