<?xml version="1.0" standalone="no"?>
<!DOCTYPE svg PUBLIC "-//W3C//DTD SVG 20010904//EN"
 "http://www.w3.org/TR/2001/REC-SVG-20010904/DTD/svg10.dtd">
<svg version="1.0" xmlns="http://www.w3.org/2000/svg"
 width="1897.000000pt" height="855.000000pt" viewBox="0 0 1897.000000 855.000000"
 preserveAspectRatio="xMidYMid meet">

<g transform="translate(0.000000,855.000000) scale(0.100000,-0.100000)"
fill="#000000" stroke="none">
<path d="M706 8349 c-9 -11 -14 -25 -10 -30 4 -8 0 -8 -13 0 -27 14 -37 2 -16
-21 9 -10 11 -18 5 -18 -6 0 -13 6 -15 13 -4 7 -8 3 -12 -10 -4 -12 -14 -23
-23 -25 -11 -2 -7 -7 12 -16 25 -11 28 -11 23 3 -7 18 -3 19 24 4 11 -6 34
-11 50 -11 18 -1 36 -9 44 -21 12 -17 18 -19 37 -8 13 6 15 9 6 7 -19 -6 -21
3 -20 89 0 22 -2 34 -5 28 -3 -7 -11 -13 -18 -13 -7 0 -15 6 -18 13 -2 6 -2 0
0 -15 5 -30 -9 -36 -31 -16 -11 11 -11 16 1 34 18 29 2 39 -21 13z"/>
<path d="M352 8318 c3 -7 13 -15 22 -16 12 -3 17 1 14 10 -3 7 -13 15 -22 16
-12 3 -17 -1 -14 -10z"/>
<path d="M1625 8281 c-55 -33 -69 -57 -73 -124 -4 -79 18 -122 78 -154 51 -27
104 -29 160 -7 l40 16 0 59 c0 45 4 60 18 68 15 9 14 10 -8 11 -14 0 -36 -7
-48 -16 -18 -12 -22 -25 -22 -68 0 -57 -8 -66 -55 -66 -67 0 -105 52 -105 142
0 98 46 148 123 134 29 -5 41 -15 57 -44 l19 -37 1 33 c0 26 -6 36 -32 52 -42
26 -113 26 -153 1z"/>
<path d="M547 8284 c-3 -3 -3 -13 1 -22 5 -15 4 -16 -14 -2 -19 14 -19 14 0
-7 23 -27 35 -22 28 12 -5 27 -6 28 -15 19z"/>
<path d="M1868 8264 c21 -14 22 -22 22 -150 l0 -134 30 0 30 0 0 131 c0 72 -5
139 -10 150 -8 14 -21 19 -53 19 -40 0 -41 0 -19 -16z"/>
<path d="M2243 8266 c15 -11 17 -31 17 -150 l0 -136 30 0 30 0 0 70 c0 39 4
70 9 70 5 0 19 -17 32 -37 39 -66 80 -103 113 -103 l30 0 -26 28 c-27 28 -82
112 -76 116 2 1 15 7 30 14 30 13 44 48 34 88 -10 37 -59 54 -158 54 -71 -1
-81 -3 -65 -14z m149 -23 c40 -36 9 -103 -49 -103 -21 0 -23 4 -23 60 0 58 1
60 27 60 14 0 35 -7 45 -17z"/>
<path d="M2508 8265 c21 -15 22 -23 22 -151 l0 -134 30 0 30 0 0 95 c0 79 3
97 16 102 37 14 49 -10 52 -106 l3 -91 29 0 30 0 0 85 c0 79 -2 88 -26 112
-21 21 -32 25 -63 20 -37 -5 -38 -4 -47 37 -9 40 -10 41 -54 44 -44 3 -44 3
-22 -13z"/>
<path d="M491 8244 c0 -11 3 -14 6 -6 3 7 2 16 -1 19 -3 4 -6 -2 -5 -13z"/>
<path d="M865 8250 c-7 -12 2 -12 30 0 19 8 19 9 -2 9 -12 1 -25 -3 -28 -9z"/>
<path d="M976 8241 c-20 -22 -7 -36 25 -26 14 5 27 -1 44 -19 44 -47 60 -27
25 32 -23 38 -66 44 -94 13z"/>
<path d="M647 8213 c-4 -6 0 -19 8 -29 11 -15 14 -16 15 -4 0 21 -16 44 -23
33z"/>
<path d="M230 8201 c0 -5 5 -13 10 -16 6 -3 10 -2 10 4 0 5 -4 13 -10 16 -5 3
-10 2 -10 -4z"/>
<path d="M735 8200 c4 -6 11 -8 16 -5 14 9 11 15 -7 15 -8 0 -12 -5 -9 -10z"/>
<path d="M490 8186 c0 -16 58 -61 67 -53 6 7 -48 67 -59 67 -5 0 -8 -6 -8 -14z"/>
<path d="M2048 8184 c-36 -19 -48 -43 -48 -94 0 -52 13 -76 50 -95 78 -41 160
8 160 95 0 87 -85 137 -162 94z m86 -26 c31 -44 12 -158 -26 -158 -30 0 -48
34 -48 88 0 81 40 119 74 70z"/>
<path d="M2789 8171 c-24 -25 -29 -38 -29 -80 0 -67 28 -101 90 -108 36 -4 51
-1 73 17 15 12 25 26 21 31 -3 5 -17 0 -31 -11 -14 -11 -34 -20 -44 -20 -25 0
-49 27 -49 56 0 23 3 24 65 24 l65 0 0 29 c0 43 -9 60 -41 76 -45 24 -87 19
-120 -14z m89 -3 c7 -7 12 -25 12 -40 0 -25 -3 -28 -35 -28 -29 0 -35 4 -35
21 0 47 32 73 58 47z"/>
<path d="M3018 8189 c-18 -10 -25 -49 -10 -49 4 0 15 9 25 20 21 25 53 26 67
1 20 -38 12 -48 -37 -54 -57 -6 -88 -37 -78 -76 11 -45 69 -66 115 -41 13 7
21 7 25 0 3 -5 15 -10 26 -10 17 0 19 7 19 75 0 85 -17 129 -52 139 -34 9 -81
7 -100 -5z m92 -132 c0 -54 -39 -77 -60 -36 -14 26 11 69 40 69 16 0 20 -7 20
-33z"/>
<path d="M145 8180 c-3 -6 5 -14 19 -19 13 -6 27 -18 30 -29 8 -23 65 -51 88
-43 14 5 6 12 -30 28 -27 12 -54 34 -62 48 -14 26 -34 33 -45 15z"/>
<path d="M816 8183 c-13 -13 -5 -23 20 -23 19 0 25 -4 20 -15 -6 -17 9 -21 19
-5 11 18 -44 57 -59 43z"/>
<path d="M958 8155 c6 -32 17 -39 49 -30 l26 6 -36 25 c-44 30 -45 30 -39 -1z"/>
<path d="M771 8145 c-25 -27 -17 -34 13 -12 11 8 17 19 15 25 -2 6 -14 1 -28
-13z"/>
<path d="M897 8154 c-4 -4 -7 -14 -7 -23 0 -11 3 -12 11 -4 6 6 10 16 7 23 -2
6 -7 8 -11 4z"/>
<path d="M331 8121 c-11 -7 -9 -12 10 -22 21 -11 22 -10 12 3 -7 8 -10 18 -6
21 9 10 1 8 -16 -2z"/>
<path d="M828 8115 c-3 -3 -18 -8 -34 -11 -46 -8 -54 -12 -48 -29 4 -9 12 -14
18 -12 6 3 21 -5 33 -16 l22 -20 36 27 c19 15 35 34 35 42 0 8 -4 12 -10 9 -5
-3 -10 -12 -10 -20 0 -14 -21 -25 -51 -25 -16 0 -17 3 -7 19 7 11 15 18 18 16
4 -2 7 2 7 10 0 17 -1 17 -9 10z"/>
<path d="M388 8103 c6 -2 18 -2 25 0 6 3 1 5 -13 5 -14 0 -19 -2 -12 -5z"/>
<path d="M710 8089 c0 -5 5 -7 10 -4 6 3 10 8 10 11 0 2 -4 4 -10 4 -5 0 -10
-5 -10 -11z"/>
<path d="M545 8080 c-8 -13 5 -13 25 0 13 8 13 10 -2 10 -9 0 -20 -4 -23 -10z"/>
<path d="M1079 8083 c-1 -5 -1 -12 0 -17 1 -5 -7 -6 -18 -3 -12 3 -22 -1 -25
-9 -9 -24 39 -16 64 11 l23 25 -21 0 c-12 0 -23 -3 -23 -7z"/>
<path d="M505 8069 c-4 -6 -5 -12 -2 -15 2 -3 7 2 10 11 7 17 1 20 -8 4z"/>
<path d="M300 8060 c-9 -6 -10 -10 -3 -10 6 0 15 5 18 10 8 12 4 12 -15 0z"/>
<path d="M686 8061 c-18 -7 -18 -8 4 -14 27 -7 39 -1 24 12 -5 5 -18 5 -28 2z"/>
<path d="M475 7989 c-10 -15 3 -25 16 -12 7 7 7 13 1 17 -6 3 -14 1 -17 -5z"/>
<path d="M950 7993 c0 -6 -3 -18 -6 -27 -4 -10 -1 -16 9 -16 24 0 31 20 13 38
-9 9 -16 11 -16 5z"/>
<path d="M770 7970 c8 -15 8 -20 -2 -20 -9 0 -9 -3 2 -9 8 -6 17 -8 21 -5 4 2
10 0 14 -6 3 -5 1 -10 -4 -10 -6 0 -11 -5 -11 -11 0 -6 9 -9 19 -6 13 3 21 -1
24 -12 3 -9 4 -1 3 17 -1 21 -7 34 -18 38 -21 6 -24 24 -5 24 19 0 -15 20 -36
20 -15 0 -16 -3 -7 -20z"/>
<path d="M1056 7961 c-7 -10 22 -37 30 -28 9 8 -3 37 -15 37 -5 0 -12 -4 -15
-9z"/>
<path d="M634 7918 c3 -13 6 -27 6 -33 0 -5 5 -3 10 5 15 23 12 50 -6 50 -12
0 -15 -6 -10 -22z"/>
<path d="M938 7863 c7 -3 16 -2 19 1 4 3 -2 6 -13 5 -11 0 -14 -3 -6 -6z"/>
<path d="M14343 7543 c17 -305 37 -605 42 -613 5 -8 7 -454 5 -1080 -2 -311 6
-436 30 -480 16 -30 12 -59 -15 -94 -14 -19 -26 -50 -29 -76 -2 -25 -7 -62
-11 -83 -7 -33 -5 -39 13 -44 30 -7 33 -23 21 -119 -6 -48 -8 -112 -4 -143 4
-31 7 -80 6 -108 -2 -50 -1 -53 22 -53 23 0 24 3 22 53 -2 28 -6 84 -10 122
-7 71 7 138 24 119 10 -10 31 -180 31 -248 0 -42 2 -46 25 -46 30 0 31 7 8 33
-13 15 -15 21 -5 24 16 6 16 78 -1 135 -9 28 -12 73 -9 126 4 74 8 86 33 113
30 32 36 61 20 103 -7 17 -6 27 2 35 18 14 20 96 3 110 -8 7 -12 20 -9 31 3
12 -4 28 -21 44 -37 34 -46 75 -41 185 5 95 -5 323 -27 616 -6 83 -12 173 -13
200 -1 28 -8 136 -14 240 -11 186 -7 976 5 996 3 5 -20 9 -52 9 l-57 0 6 -107z
m187 -2233 c0 -5 -7 -10 -16 -10 -8 0 -12 5 -9 10 3 6 10 10 16 10 5 0 9 -4 9
-10z m-5 -130 c-4 -6 -2 -17 5 -25 8 -10 8 -15 -1 -21 -7 -4 -15 -2 -17 4 -4
13 -28 16 -34 5 -1 -5 -18 -16 -37 -26 -23 -12 -30 -13 -23 -4 7 8 9 17 5 20
-3 4 18 18 48 32 62 28 62 29 54 15z"/>
<path d="M16913 7533 c4 -65 14 -219 23 -343 20 -266 26 -600 24 -1335 -1
-321 6 -440 29 -483 17 -32 13 -61 -14 -96 -14 -19 -27 -51 -29 -72 -2 -22 -7
-60 -11 -86 -7 -44 -6 -48 13 -48 29 0 33 -20 22 -108 -6 -42 -7 -130 -4 -194
7 -113 8 -118 29 -118 21 0 22 4 20 53 -2 28 -6 84 -10 122 -7 74 8 146 25
115 10 -19 30 -178 30 -242 0 -44 2 -48 25 -48 30 0 31 7 8 33 -13 15 -15 21
-5 24 16 6 15 65 -1 130 -9 32 -12 82 -9 133 4 72 8 84 33 111 30 32 36 61 20
103 -7 17 -6 27 2 35 18 14 20 96 3 110 -8 7 -12 20 -9 31 3 12 -4 28 -21 44
-37 34 -46 74 -41 185 4 94 -5 305 -27 611 -6 85 -12 173 -13 195 -23 395 -26
500 -21 858 l6 397 -51 0 -52 0 6 -117z m187 -2223 c0 -5 -7 -10 -16 -10 -8 0
-12 5 -9 10 3 6 10 10 16 10 5 0 9 -4 9 -10z m-5 -130 c-4 -6 -2 -17 5 -25 15
-19 -6 -31 -26 -14 -9 8 -18 9 -22 3 -4 -5 -22 -17 -41 -27 -23 -12 -30 -13
-23 -4 7 8 9 17 5 20 -3 4 18 18 48 32 62 28 62 29 54 15z"/>
<path d="M6590 6201 c-8 -6 -26 -11 -38 -11 -13 0 -39 -7 -58 -16 -19 -9 -43
-14 -53 -11 -14 3 -18 1 -14 -9 3 -9 -2 -14 -17 -14 -28 0 -102 -20 -114 -32
-6 -4 -19 -8 -30 -8 -10 0 -42 -11 -70 -24 -63 -29 -116 -42 -116 -27 0 6 -10
11 -23 11 -45 0 -264 -119 -331 -180 -70 -63 -144 -143 -157 -169 -14 -27 -64
-108 -106 -172 -20 -31 -22 -40 -12 -62 8 -18 8 -30 0 -43 -10 -18 -11 -18
-17 4 l-7 23 -13 -27 c-8 -14 -14 -33 -14 -42 0 -13 3 -12 15 4 14 18 14 17
15 -12 0 -17 -11 -57 -25 -88 -14 -31 -22 -56 -19 -56 19 0 -23 -30 -64 -45
-26 -10 -59 -28 -74 -41 -16 -12 -36 -25 -47 -29 -10 -3 -31 -30 -46 -60 -14
-30 -33 -61 -40 -69 -8 -7 -17 -27 -21 -42 l-6 -29 27 33 c15 17 32 32 36 32
5 0 27 19 49 42 26 28 40 37 40 27 0 -9 -6 -19 -13 -22 -7 -3 -26 -24 -42 -48
-17 -24 -47 -66 -67 -94 -21 -27 -38 -58 -38 -67 0 -38 -19 -25 -22 14 -3 34
-5 39 -12 23 -4 -11 -14 -33 -21 -50 -32 -76 -50 -183 -47 -282 1 -28 -2 -54
-7 -58 -18 -10 -33 35 -41 124 -6 69 -8 45 -7 -123 0 -140 -4 -211 -11 -214
-6 -2 -13 7 -17 18 -7 21 -8 21 -26 -9 -10 -17 -19 -40 -19 -51 0 -24 -22 -26
-40 -5 -22 27 -31 5 -24 -57 l7 -61 -39 8 c-173 34 -554 9 -697 -46 -47 -18
-55 -24 -45 -36 9 -11 1 -23 -39 -61 -53 -49 -86 -103 -98 -162 -4 -19 -12
-41 -17 -47 -7 -9 -6 -23 2 -43 11 -26 10 -111 -1 -198 -1 -4 0 -20 1 -37 l2
-30 13 35 c9 25 14 29 14 14 1 -11 5 -24 10 -30 6 -5 12 -40 16 -79 4 -57 2
-78 -14 -110 l-19 -40 -1 31 c-1 16 4 35 10 41 13 13 8 118 -6 118 -5 0 -11
-23 -13 -52 -3 -43 -9 -58 -39 -90 l-35 -38 6 62 c8 68 1 90 -43 135 -32 34
-52 35 -82 4 -19 -20 -27 -22 -56 -14 -50 14 -56 7 -28 -34 29 -43 34 -84 9
-74 -13 5 -14 1 -9 -23 5 -23 0 -36 -25 -65 -18 -20 -39 -36 -49 -37 -31 -1
-96 -44 -109 -72 -22 -46 6 -61 62 -32 15 8 36 15 45 15 28 0 71 45 77 81 10
61 14 66 29 46 8 -12 15 -14 20 -8 3 6 13 11 21 11 20 0 8 -101 -18 -152 -10
-21 -15 -38 -12 -38 4 0 0 -8 -8 -17 -19 -22 -48 -115 -48 -156 0 -34 19 -107
32 -122 4 -5 8 -17 8 -27 0 -10 4 -26 9 -36 63 -126 71 -172 31 -172 -24 0
-48 31 -100 131 -61 117 -71 169 -34 169 8 0 14 3 15 8 5 58 20 186 25 215 7
42 -11 51 -40 18 -10 -10 -37 -24 -61 -30 -49 -12 -62 -25 -46 -45 9 -11 5
-16 -20 -25 -18 -6 -51 -11 -74 -11 -23 0 -45 -3 -48 -7 -9 -9 43 -43 66 -43
9 0 17 -6 17 -14 0 -16 -29 -25 -80 -27 -35 -1 -35 -1 -8 -10 45 -17 41 -34
-18 -73 -58 -39 -62 -47 -39 -66 22 -18 19 -92 -4 -121 -17 -21 -28 -24 -91
-24 l-72 0 34 -28 c18 -15 50 -33 72 -39 21 -7 40 -18 43 -26 8 -20 -31 -54
-61 -55 -36 0 -17 -23 27 -33 l31 -6 -30 -16 c-31 -16 -105 -20 -141 -8 -18 6
-23 5 -23 -7 0 -25 79 -66 141 -73 46 -5 61 -3 89 15 50 30 70 28 70 -8 0 -25
6 -31 35 -41 35 -11 62 -43 57 -67 -2 -7 2 -22 8 -34 10 -18 9 -20 -12 -17
-13 2 -27 13 -33 25 -12 27 -51 46 -79 37 -11 -4 -31 -18 -44 -31 -70 -76 -66
-139 14 -223 30 -31 54 -60 54 -63 0 -4 -9 -7 -20 -7 -20 0 -20 -1 2 -31 33
-45 73 -87 115 -120 21 -17 29 -29 20 -29 -8 0 -17 4 -19 9 -1 5 -16 11 -33
13 -22 2 -31 -2 -33 -14 -3 -17 51 -152 72 -178 7 -8 11 -23 9 -32 -4 -15 -11
-11 -39 18 -31 33 -34 35 -34 15 0 -12 5 -32 11 -44 12 -22 72 -82 92 -91 7
-4 -10 -4 -36 -2 -52 4 -87 29 -113 78 -14 28 -38 36 -49 18 -3 -5 1 -26 10
-46 8 -20 15 -51 15 -69 0 -18 12 -58 26 -89 29 -64 72 -100 157 -135 45 -18
57 -29 71 -62 10 -22 24 -43 32 -46 16 -6 19 -33 4 -33 -14 0 -12 -52 4 -72 7
-10 18 -18 25 -18 20 0 12 -25 -11 -35 -34 -15 -35 -59 -3 -90 14 -15 33 -38
42 -51 15 -24 15 -25 -5 -31 -25 -6 -27 -19 -10 -60 11 -28 12 -48 2 -91 -5
-27 -18 -22 -83 33 -52 43 -64 44 -48 6 17 -40 107 -135 148 -156 67 -35 143
-55 210 -55 64 0 126 17 255 71 28 11 34 10 59 -9 15 -12 31 -22 35 -22 3 0
16 17 28 38 14 25 26 77 37 162 44 348 99 566 199 798 55 128 106 190 257 312
24 19 75 67 114 105 38 39 157 140 263 225 106 85 213 171 237 190 24 19 65
52 92 73 173 135 224 178 275 232 69 73 126 150 169 230 17 33 35 62 39 65 4
3 13 16 20 30 21 41 92 130 113 141 36 20 97 -61 97 -131 0 -16 9 -46 19 -66
l19 -35 25 53 c13 29 29 69 35 88 71 231 110 349 133 400 91 203 166 289 185
214 9 -35 -1 -281 -21 -539 -16 -211 -14 -315 8 -315 17 1 47 25 47 38 0 6 9
16 19 21 17 9 46 44 118 140 61 80 75 91 113 91 20 0 51 5 69 11 37 13 39 27
11 127 -33 118 -26 152 30 144 45 -6 138 -94 276 -258 53 -63 64 -74 79 -74
19 0 19 31 1 158 -15 96 -11 166 12 252 17 62 59 126 144 212 107 110 128 136
128 157 0 10 7 32 15 48 22 44 22 245 1 343 -9 41 -21 107 -26 145 -5 39 -14
97 -20 130 -11 66 -7 125 17 230 21 95 43 134 97 179 26 21 65 65 88 99 23 34
62 83 86 110 31 32 40 47 28 47 -19 0 -21 13 -3 28 7 6 24 35 36 64 13 29 27
61 32 70 16 31 10 68 -17 115 -25 42 -26 48 -15 91 7 26 15 63 18 82 3 19 9
40 13 45 18 24 21 76 6 106 -9 18 -16 44 -16 59 0 15 -7 46 -15 69 -13 36 -13
43 0 47 13 5 13 10 -1 35 -8 16 -18 29 -23 29 -5 0 -32 18 -60 40 -28 22 -59
40 -69 40 -11 0 -25 6 -31 14 -7 8 -26 17 -44 20 -18 3 -56 17 -85 31 -30 14
-63 25 -74 25 -11 0 -88 27 -171 61 -84 33 -164 62 -178 64 -15 2 -53 11 -85
21 -71 20 -459 32 -484 15z m1300 -622 c0 -51 -4 -70 -16 -77 -8 -5 -23 -21
-33 -36 l-19 -28 -16 23 c-23 33 -20 62 7 74 17 8 25 25 36 72 12 50 17 60 28
52 8 -8 13 -35 13 -80z m-2503 -455 c-3 -3 -12 -4 -19 -1 -8 3 -5 6 6 6 11 1
17 -2 13 -5z m-347 -430 c0 -14 -4 -23 -9 -20 -5 3 -7 15 -4 26 7 28 13 25 13
-6z m1957 -2 c8 -5 -4 -13 -32 -21 -57 -17 -135 -84 -135 -117 0 -34 15 -30
59 16 25 27 47 40 64 40 25 0 50 -21 31 -27 -5 -2 -32 -18 -58 -36 -38 -24
-52 -42 -62 -72 -7 -22 -17 -57 -24 -78 -14 -46 -5 -103 15 -87 7 6 20 8 29 4
17 -6 19 -31 7 -74 l-7 -25 -7 28 c-9 33 -37 37 -36 5 1 -30 30 -108 49 -134
31 -42 39 -38 33 16 -5 40 -3 50 9 50 8 0 19 -5 25 -11 6 -6 22 -17 35 -23 14
-7 22 -20 21 -32 -2 -10 7 -45 19 -77 l21 -58 -21 -21 c-48 -49 -129 7 -195
134 -55 109 -81 252 -66 373 15 119 51 182 124 216 42 20 82 24 102 11z m-17
-365 c0 -7 9 -23 20 -35 24 -26 6 -30 -22 -5 -19 17 -25 53 -8 53 6 0 10 -6
10 -13z m-2871 -465 c-30 -32 -65 -79 -79 -105 -14 -26 -29 -46 -35 -44 -15 5
-18 63 -3 78 7 8 21 27 31 42 19 30 101 87 125 87 8 0 -10 -26 -39 -58z m-82
-344 c-3 -7 -5 -2 -5 12 0 14 2 19 5 13 2 -7 2 -19 0 -25z m-16 -115 c-8 -14
-10 -8 -11 28 0 25 3 49 8 53 11 12 14 -62 3 -81z m-274 -245 c-17 -48 -41
-61 -50 -27 -4 15 4 36 26 67 27 37 33 41 35 24 2 -11 -3 -40 -11 -64z m-347
-1088 c22 -7 21 -8 -12 -9 -21 -1 -38 4 -38 9 0 11 14 11 50 0z"/>
<path d="M7920 5782 c0 -10 13 -37 28 -58 30 -42 52 -105 52 -150 1 -52 33
-107 76 -129 21 -11 55 -33 74 -49 34 -29 100 -109 100 -121 0 -4 9 -18 20
-32 35 -44 22 -2 -29 101 -28 54 -53 112 -57 130 -6 30 -40 76 -56 76 -4 0 -8
-10 -9 -22 -1 -15 -4 -9 -10 15 -13 54 -57 144 -74 151 -8 3 -15 11 -15 18 -1
19 -31 50 -68 71 -31 18 -32 18 -32 -1z"/>
<path d="M8046 4543 c-12 -12 -6 -22 17 -28 46 -14 143 -64 161 -84 22 -24 56
-28 56 -7 0 21 -25 43 -79 70 -55 28 -147 57 -155 49z"/>
<path d="M7940 4198 c0 -25 10 -41 46 -74 25 -24 55 -44 67 -46 12 -2 27 -14
34 -28 13 -25 13 -25 13 9 0 29 -10 43 -72 102 -40 38 -76 69 -80 69 -5 0 -8
-14 -8 -32z"/>
<path d="M8108 3419 c-12 -6 -18 -22 -18 -45 0 -41 16 -77 31 -69 11 7 59 100
59 115 0 13 -50 13 -72 -1z"/>
<path d="M8243 3284 c-18 -8 -33 -21 -33 -29 0 -18 12 -19 63 -4 27 7 37 15
35 27 -4 22 -25 24 -65 6z"/>
<path d="M7943 3013 c-22 -8 -14 -40 13 -62 36 -28 79 -27 99 2 15 21 14 23
-22 38 -53 22 -76 28 -90 22z"/>
<path d="M5129 1656 c-2 -3 -36 -6 -74 -7 -121 -5 -239 -77 -285 -173 -11 -23
-24 -48 -29 -56 -62 -97 -171 -460 -171 -570 0 -26 -7 -108 -15 -182 -8 -73
-15 -230 -16 -348 -1 -118 -5 -238 -9 -267 l-7 -52 304 -1 303 0 0 27 c0 16 7
37 15 47 14 18 15 16 15 -27 l0 -47 95 0 94 0 -1 42 c-1 96 15 223 32 248 9
14 20 32 24 40 3 8 4 -6 2 -32 -2 -28 2 -55 9 -65 7 -10 16 -46 20 -80 4 -34
13 -81 20 -105 l12 -43 80 -3 80 -3 -8 48 c-21 121 -27 211 -18 286 10 79 1
123 -24 114 -28 -9 -44 -287 -22 -370 4 -16 3 -27 -3 -27 -5 0 -15 12 -21 27
-7 16 -19 42 -28 58 -11 20 -18 62 -21 121 l-4 91 31 23 c25 17 31 28 29 49
-3 22 -8 26 -38 28 -44 2 -80 13 -80 24 0 4 20 11 45 15 25 3 48 10 51 15 3 5
13 9 23 9 27 0 47 28 33 42 -7 7 -12 20 -12 31 0 10 -7 41 -16 69 -15 44 -16
81 -9 297 9 307 7 407 -10 545 -16 122 -29 150 -76 160 -35 7 -313 9 -320 2z"/>
<path d="M5690 406 c0 -8 5 -18 10 -21 6 -3 10 1 10 9 0 8 -4 18 -10 21 -5 3
-10 -1 -10 -9z"/>
<path d="M5802 348 c2 -6 10 -14 16 -16 7 -2 10 2 6 12 -7 18 -28 22 -22 4z"/>
<path d="M5672 290 c0 -14 2 -19 5 -12 2 6 2 18 0 25 -3 6 -5 1 -5 -13z"/>
<path d="M5691 234 c0 -11 3 -14 6 -6 3 7 2 16 -1 19 -3 4 -6 -2 -5 -13z"/>
</g>
</svg>
