<?xml version="1.0" standalone="no"?>
<!DOCTYPE svg PUBLIC "-//W3C//DTD SVG 20010904//EN"
 "http://www.w3.org/TR/2001/REC-SVG-20010904/DTD/svg10.dtd">
<svg version="1.0" xmlns="http://www.w3.org/2000/svg"
 width="1878.000000pt" height="856.000000pt" viewBox="0 0 1878.000000 856.000000"
 preserveAspectRatio="xMidYMid meet">

<g transform="translate(0.000000,856.000000) scale(0.100000,-0.100000)"
fill="#000000" stroke="none">
<path d="M0 4280 l0 -4280 8838 0 c5632 0 8908 4 9032 10 179 9 868 40 898 40
9 0 12 858 12 4255 l0 4255 -3206 0 c-2299 0 -3211 -3 -3226 -11 -14 -8 -23
-8 -31 0 -8 8 -1728 11 -6164 11 l-6153 0 0 -4280z m12341 4100 c25 -14 24
-35 -2 -72 -27 -37 -59 -35 -72 6 -9 26 -6 32 17 53 31 26 31 26 57 13z
m-11181 -70 c0 -15 -7 -20 -25 -20 -16 0 -25 -6 -25 -15 0 -10 11 -15 35 -15
33 0 35 2 35 35 0 28 4 35 20 35 16 0 20 -7 20 -32 l1 -33 27 33 c27 32 62 43
62 20 0 -6 -10 -22 -22 -35 -18 -19 -20 -28 -12 -41 18 -27 38 -20 45 18 14
66 80 90 133 49 20 -16 26 -29 26 -60 0 -38 1 -39 33 -39 18 0 56 -6 83 -14
32 -9 150 -18 344 -25 339 -13 626 -29 655 -37 11 -4 108 -10 215 -14 265 -11
510 -29 540 -41 48 -18 52 -48 45 -301 -3 -128 -8 -240 -11 -248 -2 -8 -42
-41 -88 -72 -72 -49 -92 -58 -147 -64 -35 -4 -92 -17 -126 -30 l-62 -24 -303
21 c-167 12 -386 24 -488 27 l-184 7 -36 53 c-48 72 -67 81 -176 82 -97 0
-113 -7 -128 -57 -12 -39 -33 -47 -114 -44 -197 6 -577 30 -669 43 -15 2 -37
81 -30 108 3 11 1 20 -4 20 -5 0 -9 18 -9 40 0 29 -4 40 -15 40 -12 0 -15 -14
-15 -65 0 -58 -2 -65 -20 -65 -18 0 -20 7 -20 65 0 58 -2 65 -20 65 -13 0 -20
7 -20 20 0 17 7 20 49 20 30 0 51 5 53 13 3 6 6 56 7 111 l2 98 -23 -16 c-12
-9 -30 -16 -40 -16 -11 0 -18 -9 -20 -27 -2 -17 -9 -28 -18 -28 -12 0 -16 17
-18 83 l-3 82 45 0 c27 0 51 -6 60 -16 15 -14 16 -11 16 28 1 24 3 69 7 100 6
66 -10 102 -53 118 -32 13 -31 56 1 53 11 -2 75 -7 141 -13 67 -5 129 -13 138
-16 9 -3 16 -1 16 5 0 6 -9 11 -20 11 -13 0 -20 7 -20 20 0 18 7 20 65 20 58
0 65 -2 65 -20z m445 -9 c-3 -6 -11 -8 -17 -5 -6 4 -5 9 3 15 16 10 23 4 14
-10z m289 0 c3 -5 -7 -11 -23 -13 -34 -5 -53 0 -45 13 7 12 61 12 68 0z m2015
-258 c19 -13 23 -21 18 -52 -2 -20 -16 -60 -31 -90 -14 -30 -26 -61 -26 -68 0
-18 -128 -151 -164 -171 -33 -18 -103 -42 -123 -42 -7 0 -20 14 -28 30 -14 26
-14 47 -5 148 5 64 10 141 10 171 0 42 5 60 22 78 21 22 24 22 162 17 99 -5
148 -11 165 -21z m1318 -139 c15 -9 23 -24 23 -43 0 -26 -5 -30 -57 -45 -32
-10 -85 -26 -118 -37 -33 -11 -103 -33 -155 -48 -52 -16 -120 -38 -150 -49
-30 -11 -75 -26 -100 -32 -25 -7 -73 -23 -108 -37 -80 -32 -109 -26 -118 22
-9 49 6 79 84 163 l68 73 80 -3 c56 -2 91 2 119 14 111 45 376 59 432 22z
m8938 -103 c278 -42 474 -77 543 -97 56 -17 72 -35 72 -83 0 -25 -5 -32 -26
-37 -34 -9 -175 2 -279 20 -44 8 -168 25 -275 37 l-195 23 -34 33 c-28 28 -32
38 -27 65 13 65 31 68 221 39z m-8589 -86 c10 -8 56 -26 102 -40 96 -30 118
-54 88 -100 -15 -23 -22 -25 -91 -25 -81 0 -127 -14 -118 -37 9 -24 -27 -52
-82 -63 -74 -15 -237 -16 -320 -2 -38 7 -141 18 -227 24 -129 10 -158 14 -160
27 -2 9 0 21 4 26 5 6 17 22 28 36 25 34 64 42 216 44 131 2 188 16 180 44 -3
9 2 25 10 36 14 18 25 20 143 17 105 -2 130 0 141 13 16 19 60 19 86 0z
m-1874 -250 c21 -47 -36 -138 -95 -151 -25 -5 -34 -2 -49 16 -21 26 -23 69 -5
94 18 24 88 64 115 65 15 1 26 -7 34 -24z m8540 -70 c-6 -28 -7 -27 -12 15 -7
61 1 98 11 50 4 -19 5 -48 1 -65z m-7722 45 c0 -5 -5 -10 -11 -10 -5 0 -7 5
-4 10 3 6 8 10 11 10 2 0 4 -4 4 -10z m47 -6 c-3 -3 -12 -4 -19 -1 -8 3 -5 6
6 6 11 1 17 -2 13 -5z m4147 -68 c135 -73 146 -80 152 -100 7 -21 -10 -36 -41
-36 -11 0 -45 -7 -75 -15 -110 -31 -162 -36 -188 -19 -23 15 -24 21 -20 94 6
132 40 147 172 76z m-4000 -118 c9 -12 16 -38 16 -56 0 -44 -32 -71 -85 -72
-22 0 -58 -7 -80 -14 -23 -8 -84 -14 -144 -15 -57 0 -106 -3 -109 -6 -3 -2 17
-28 43 -56 l48 -51 -7 -202 c-8 -215 -8 -215 -63 -245 -54 -28 -165 -3 -176
41 -3 10 1 62 8 115 7 54 16 125 19 158 9 87 31 161 61 207 21 31 24 42 14 54
-6 8 -18 14 -26 14 -22 0 -27 29 -8 50 11 12 31 20 48 20 29 0 44 4 135 32 79
24 189 46 239 47 43 1 55 -3 67 -21z m-3564 -28 c19 -5 102 -14 184 -20 82 -5
153 -13 158 -18 5 -5 30 -7 56 -4 43 4 49 2 59 -21 9 -20 9 -29 -2 -44 -8 -10
-15 -33 -15 -51 0 -25 -9 -43 -33 -67 -27 -27 -42 -33 -97 -39 -59 -6 -75 -4
-150 24 -80 30 -90 32 -170 25 -47 -4 -101 -8 -120 -9 -19 -1 -40 -5 -47 -9
-8 -5 -15 5 -22 30 -9 35 -51 219 -51 225 0 6 217 -14 250 -22z m1245 -83 c17
0 54 1 83 3 43 2 57 -1 76 -19 24 -22 24 -48 1 -103 -13 -33 35 -20 79 20 37
34 54 41 176 69 115 27 162 33 320 39 244 8 235 14 232 -152 -2 -66 -5 -133
-8 -150 -6 -33 -14 -39 -114 -83 -51 -23 -102 -52 -125 -71 -9 -8 -48 -17 -88
-21 -102 -11 -140 -19 -158 -35 -21 -18 -229 -36 -297 -25 -74 12 -81 25 -81
146 0 55 4 125 8 155 5 30 7 57 5 59 -2 2 -29 8 -59 12 -44 6 -60 13 -81 38
-48 58 -110 32 -153 -63 -29 -64 -44 -76 -98 -76 -31 0 -43 -28 -43 -98 0 -81
-33 -168 -67 -177 -53 -13 -75 12 -88 98 -12 80 -45 92 -173 63 -82 -19 -283
-21 -367 -4 -90 18 -95 64 -12 97 42 17 73 21 162 20 61 0 148 7 195 15 47 9
98 16 113 16 73 0 101 41 97 147 -1 28 4 62 10 74 l12 22 207 -8 c113 -4 220
-8 236 -8z m7023 -24 c3 -21 -1 -23 -40 -23 -39 1 -88 25 -88 45 0 3 28 5 63
3 56 -3 62 -5 65 -25z m-5835 -3 c12 -17 12 -27 -2 -70 -21 -69 -45 -65 -49 7
-4 71 22 104 51 63z m1204 -50 c12 0 43 -50 43 -69 0 -6 -18 -27 -40 -47 -28
-26 -39 -43 -35 -55 7 -20 -100 -160 -165 -216 -35 -30 -38 -31 -52 -15 -24
27 -22 168 3 203 10 15 19 39 19 52 0 14 5 29 11 32 6 4 9 19 8 33 -4 39 8 52
46 52 19 0 37 4 40 10 8 14 66 29 90 24 11 -2 26 -4 32 -4z m4190 -1 c15 -6
79 -17 141 -25 63 -7 131 -18 153 -24 34 -9 38 -13 29 -30 -19 -35 -36 -34
-270 4 -52 9 -107 16 -121 16 -35 0 -74 32 -66 53 8 20 88 24 134 6z m5112
-39 c47 -8 358 -42 606 -66 77 -7 90 -15 108 -66 20 -56 40 -427 36 -649 -3
-142 -7 -170 -21 -186 -10 -11 -18 -26 -18 -33 0 -7 8 -22 18 -33 14 -16 17
-40 17 -157 0 -167 -6 -180 -90 -180 -92 0 -115 32 -136 193 -10 82 -10 89 10
123 12 19 21 38 21 41 0 12 -225 -8 -237 -20 -11 -10 -9 -21 7 -52 11 -22 20
-45 20 -52 0 -8 20 -13 59 -15 l59 -3 -60 -160 c-69 -185 -78 -246 -62 -446 5
-74 5 -78 -24 -111 l-30 -34 24 -23 c30 -29 40 -65 25 -97 l-11 -24 124 0 123
0 -4 48 c-4 38 0 54 20 83 l25 36 -25 32 c-19 24 -25 43 -24 79 2 77 1 113 -5
197 -5 76 -4 82 20 108 23 25 32 28 82 25 82 -4 94 -24 97 -156 l2 -101 25 26
24 27 9 -35 c13 -51 5 -236 -12 -251 -11 -11 -14 -11 -18 0 -10 25 -51 67 -59
59 -5 -5 2 -16 15 -26 23 -17 24 -23 18 -85 l-6 -66 98 0 c94 0 98 1 111 25
23 42 57 46 279 32 189 -12 205 -15 221 -35 l18 -22 475 0 475 0 -17 -56 c-14
-43 -16 -68 -9 -107 10 -60 2 -122 -18 -155 -13 -20 -13 -25 1 -44 23 -35 20
-117 -7 -145 -18 -19 -32 -23 -80 -23 -58 0 -59 -1 -74 -35 l-14 -35 -199 0
-199 0 -12 -47 c-6 -27 -14 -61 -18 -78 -12 -45 -39 -44 -51 2 -6 21 -11 47
-11 58 0 11 -3 30 -6 43 l-6 22 -2124 0 c-1335 0 -2124 -4 -2124 -10 0 -5 6
-13 14 -17 15 -9 36 -73 36 -110 0 -23 -2 -23 -130 -23 -125 0 -130 1 -155 25
-14 15 -25 38 -25 53 0 15 -12 39 -25 55 l-24 27 -699 0 c-764 0 -712 4 -712
-55 l0 -24 -46 26 c-29 16 -43 30 -40 39 5 12 -62 14 -415 14 -381 0 -421 -2
-415 -16 3 -9 9 -34 12 -57 3 -23 7 -52 10 -64 l4 -23 -462 0 -463 0 -12 28
c-7 15 -49 56 -93 91 -89 71 -120 115 -169 240 -49 124 -61 174 -68 297 -7
123 1 189 20 177 7 -4 18 -8 25 -9 22 -4 48 -32 67 -74 17 -37 35 -53 35 -30
0 6 9 19 21 31 11 11 18 27 15 34 -6 17 26 29 53 20 11 -3 22 -1 26 5 5 8 11
8 20 0 12 -10 13 -5 8 24 -7 42 11 69 38 61 17 -6 19 0 19 42 1 45 3 50 45 81
24 17 52 32 62 32 13 0 24 15 35 48 10 26 60 162 111 302 l94 255 1916 3 1917
2 0 43 c0 24 3 47 7 50 14 14 33 -17 33 -54 l0 -39 950 0 c920 0 950 1 950 19
0 10 10 30 21 45 12 15 18 30 14 34 -4 4 -49 7 -102 7 -93 0 -95 1 -120 30
l-26 30 6 455 c4 286 10 467 17 486 11 30 39 52 69 53 8 1 40 -3 70 -9z
m-5379 -80 c19 -5 87 -16 150 -25 63 -8 138 -20 165 -25 28 -5 68 -12 90 -15
101 -14 115 -18 132 -37 22 -24 22 -122 0 -283 l-13 -100 -55 3 c-30 1 -72 9
-94 17 -22 7 -51 14 -65 13 -38 -1 -133 13 -155 22 -11 5 -69 14 -130 20 -60
6 -123 13 -139 15 -42 5 -51 19 -51 88 -1 34 -5 113 -9 175 -8 102 -7 114 9
133 16 17 27 19 74 14 31 -3 72 -10 91 -15z m-3893 -31 c-22 -11 -41 -18 -44
-15 -4 3 9 12 28 20 50 22 60 18 16 -5z m10448 -18 c260 -21 460 -42 487 -53
15 -5 29 -16 32 -24 9 -23 34 -16 53 16 10 17 29 34 43 37 14 4 95 1 180 -6
85 -8 201 -16 257 -20 157 -9 159 -14 169 -326 6 -171 5 -205 -9 -230 -13 -26
-13 -34 -1 -55 24 -43 18 -89 -16 -120 -28 -26 -29 -29 -12 -34 33 -11 42 -51
42 -182 0 -172 9 -165 -225 -188 -277 -27 -293 -35 -59 -29 116 3 223 3 236 0
41 -11 53 -56 53 -195 l0 -124 -33 -29 -34 -30 -216 7 c-120 4 -227 10 -239
15 -37 14 -54 54 -69 159 -15 110 -9 142 36 173 19 13 16 15 -42 19 -49 4 -68
1 -88 -13 -18 -12 -63 -21 -156 -29 l-132 -12 19 -32 c15 -26 19 -56 21 -147
l3 -114 -34 -53 -35 -53 42 -38 c34 -31 42 -45 42 -73 0 -56 -26 -72 -113 -70
-186 4 -224 15 -284 80 -33 35 -38 36 -104 16 -33 -9 -51 19 -52 84 0 33 5 67
12 75 8 11 9 22 1 41 -5 15 -10 68 -10 119 0 85 2 93 27 119 19 19 37 28 59
28 18 0 36 5 39 10 4 6 -9 10 -33 10 -29 0 -46 7 -66 26 -26 27 -26 27 -26
191 0 159 6 197 34 215 7 4 5 13 -6 25 -23 26 -30 57 -19 86 15 40 43 49 119
41 61 -6 70 -10 105 -46 20 -21 37 -45 37 -53 0 -21 80 -19 171 4 103 26 307
38 333 18 15 -11 26 -12 47 -4 20 8 81 6 221 -6 249 -22 236 -23 193 14 -19
17 -35 40 -35 51 0 20 -4 20 -72 14 -40 -3 -116 -14 -170 -23 -81 -13 -105
-14 -136 -4 -23 8 -46 9 -60 4 -24 -9 -198 6 -542 48 -229 27 -220 20 -220
188 0 171 17 409 31 449 10 29 44 56 59 47 3 -2 68 -8 145 -14z m1474 -357
c28 -114 49 -210 46 -214 -3 -4 2 -20 10 -36 7 -16 19 -58 24 -94 14 -86 14
-339 0 -379 -21 -59 -101 -80 -144 -37 -33 33 -37 64 -33 287 3 176 5 199 22
218 18 19 18 22 2 56 -14 30 -16 57 -11 177 7 170 13 228 25 228 4 0 31 -93
59 -206z m-14384 150 c0 -19 -5 -29 -15 -29 -16 0 -25 28 -16 51 10 25 31 10
31 -22z m-1209 -235 c15 -16 15 -25 5 -71 -7 -29 -15 -69 -19 -88 -7 -33 -9
-31 -30 52 -29 117 -29 137 2 131 14 -3 32 -14 42 -24z m909 -48 c26 -5 30
-10 30 -41 0 -33 -2 -35 -45 -43 -25 -5 -57 -9 -72 -9 -27 1 -28 -1 -28 -43 0
-37 3 -45 19 -45 46 0 50 -44 21 -255 -14 -104 -22 -118 -62 -110 -26 6 -28 5
-28 -27 0 -18 5 -40 10 -48 9 -13 12 -12 25 4 13 17 23 18 89 12 48 -4 77 -3
81 4 3 5 17 10 31 10 24 0 25 -3 22 -51 l-3 -50 -55 -19 c-61 -21 -101 -25
-115 -11 -6 5 -23 11 -40 13 -26 3 -30 0 -33 -25 -7 -57 -55 -91 -107 -75 -16
5 -74 13 -128 18 -82 8 -107 15 -160 43 -75 41 -152 55 -178 31 -10 -9 -15
-22 -13 -29 6 -14 -34 -47 -48 -39 -13 9 -9 64 5 64 22 0 118 52 115 62 -2 5
-39 23 -83 41 -72 29 -80 35 -88 66 -5 21 -4 59 3 100 17 104 15 101 67 101
71 0 226 -21 241 -33 10 -8 12 -36 8 -120 -5 -108 1 -141 28 -159 18 -12 177
-9 212 4 52 18 74 69 74 170 0 50 5 89 12 96 8 8 8 15 -2 26 -8 11 -11 42 -9
103 l4 88 -37 20 -37 20 -88 -23 c-145 -36 -367 -55 -401 -33 -11 7 -11 12 -1
28 14 24 88 43 164 43 30 0 80 7 112 15 31 8 86 15 121 15 72 0 148 27 200 72
27 23 41 28 85 27 29 -1 66 -4 82 -8z m6622 -1 c167 -22 300 -42 343 -50 25
-5 80 -12 123 -15 64 -6 79 -10 88 -27 16 -30 -7 -358 -27 -377 -12 -13 -29
-13 -131 3 -65 10 -165 24 -223 32 -58 8 -130 19 -160 24 -30 6 -71 12 -90 14
-74 5 -72 -2 -69 203 3 225 -6 213 146 193z m3553 -60 c0 -40 -4 -70 -10 -70
-5 0 -10 15 -10 33 0 37 11 107 16 107 2 0 4 -31 4 -70z m-9098 23 l168 -4 15
-29 c16 -30 20 -161 9 -232 -9 -55 -50 -77 -166 -88 -101 -10 -167 -24 -213
-46 -16 -7 -56 -18 -89 -24 -32 -5 -73 -19 -91 -30 -28 -17 -47 -20 -115 -18
l-81 3 -29 -35 c-16 -19 -30 -45 -30 -57 0 -15 -7 -24 -22 -27 -13 -3 -53 -13
-90 -21 -37 -9 -77 -15 -89 -13 -25 3 -55 50 -73 113 -9 29 -18 41 -34 43 -12
2 -22 8 -22 14 0 5 6 8 14 5 18 -7 44 60 51 133 11 122 23 209 29 219 10 15
43 14 53 -1 14 -23 13 -41 -3 -185 -17 -159 -13 -181 39 -211 28 -17 29 -17
61 19 38 41 42 66 51 295 5 125 15 173 37 175 75 8 264 13 348 10 58 -3 180
-6 272 -8z m1725 -483 c-6 -22 18 -29 26 -7 4 8 6 7 6 -3 0 -8 -3 -21 -8 -28
-7 -12 -12 -12 -30 -1 -24 16 -27 29 -9 47 17 17 21 15 15 -8z m-1573 -10 c25
-9 26 -13 25 -87 -1 -118 -13 -143 -85 -171 -32 -13 -84 -28 -114 -33 -30 -6
-71 -22 -91 -35 -20 -14 -60 -29 -90 -33 -80 -13 -131 6 -205 78 -33 32 -74
66 -91 75 -44 22 -93 66 -93 82 0 20 47 28 88 16 32 -10 43 -8 96 18 43 20 81
30 131 33 74 4 277 41 317 56 31 13 81 13 112 1z m1626 -40 c0 -5 -4 -10 -10
-10 -5 0 -10 5 -10 10 0 6 5 10 10 10 6 0 10 -4 10 -10z m-50 -30 c11 -7 4
-10 -25 -10 -29 0 -36 3 -25 10 8 5 20 10 25 10 6 0 17 -5 25 -10z m-1332
-102 c-3 -36 -15 -42 -31 -17 -13 21 -2 49 18 49 12 0 15 -8 13 -32z m1217 21
c10 -15 2 -20 -44 -26 -45 -6 -55 7 -18 25 29 14 54 15 62 1z m-277 -78 c11 0
12 3 5 6 -16 6 -17 23 -2 23 7 0 17 7 23 15 6 9 25 17 43 19 24 3 32 0 36 -14
6 -24 0 -30 -33 -30 -36 0 -51 -17 -40 -46 6 -16 6 -24 -1 -24 -6 0 -7 -5 -4
-10 4 -6 11 -8 16 -4 5 3 17 0 25 -7 8 -7 35 -12 59 -12 37 0 45 -4 54 -26
l11 -26 -21 24 c-17 21 -22 22 -30 10 -13 -21 -11 -26 16 -47 13 -11 22 -22
19 -24 -2 -3 19 -14 48 -26 l53 -21 -53 0 c-54 -1 -110 20 -125 45 -4 8 -17
14 -27 14 -11 0 -20 5 -20 11 0 7 -10 9 -25 7 -26 -5 -39 5 -40 32 0 15 -65
34 -65 19 0 -5 9 -9 20 -9 11 0 20 -6 20 -14 0 -11 -9 -13 -34 -9 -19 3 -36 1
-40 -6 -5 -7 3 -11 23 -11 24 0 29 -4 24 -16 -5 -14 -3 -14 15 -3 18 12 25 10
51 -9 17 -12 37 -22 46 -22 8 0 39 -11 68 -25 44 -22 70 -26 162 -30 146 -5
251 -32 188 -48 -12 -3 -8 -7 14 -12 18 -4 30 -11 27 -16 -3 -5 2 -12 11 -15
8 -4 14 -14 13 -23 -3 -13 5 -15 40 -13 50 4 56 -11 10 -26 l-33 -10 38 -1
c30 -1 37 -5 37 -21 0 -23 -37 -35 -77 -25 -22 5 -25 4 -16 -5 6 -7 26 -16 45
-20 31 -7 31 -8 6 -9 -49 -2 -30 -18 29 -24 62 -6 117 12 107 37 -7 17 145 33
174 17 11 -6 36 -8 56 -4 30 5 41 2 57 -16 11 -11 25 -21 31 -21 18 0 58 -42
58 -61 0 -9 7 -22 15 -29 8 -7 15 -18 15 -25 0 -7 6 -18 13 -24 8 -6 20 -30
27 -53 17 -53 28 -68 50 -68 13 0 20 -11 24 -37 10 -62 7 -86 -14 -105 -11
-10 -20 -28 -20 -39 0 -10 -4 -27 -9 -37 -14 -26 -71 -208 -71 -227 0 -15 -19
-59 -47 -110 -19 -34 -43 -92 -43 -104 0 -8 -124 -11 -430 -11 -423 0 -430 0
-430 20 0 11 -4 20 -9 20 -5 0 -29 16 -53 36 -42 36 -43 38 -43 98 l0 61 -50
12 c-27 7 -62 15 -77 18 -16 3 -28 12 -28 20 0 18 -3 18 54 -1 26 -9 50 -14
53 -11 3 3 -32 30 -79 60 -89 58 -98 70 -123 169 -9 35 -38 104 -65 153 -76
141 -95 215 -93 367 0 86 4 133 13 143 7 9 9 22 4 32 -15 35 -14 63 4 63 15 0
15 2 2 10 -13 8 -12 10 4 10 20 0 20 0 0 15 -18 15 -17 16 14 10 20 -4 32 -3
32 4 0 6 9 11 20 11 25 0 56 28 62 55 2 13 10 19 22 17 11 -2 33 10 52 29 20
20 39 29 48 26 10 -4 16 -1 16 8 0 8 5 15 10 15 6 0 11 8 12 18 1 9 3 0 5 -20
3 -28 9 -38 21 -37z m12332 45 c29 -32 39 -86 40 -211 0 -69 -5 -109 -15 -128
-13 -26 -13 -31 8 -59 19 -26 22 -44 25 -156 2 -78 -1 -140 -8 -162 -7 -23 -8
-44 -2 -60 5 -14 5 -64 1 -113 -6 -77 -10 -92 -33 -116 l-26 -27 24 -23 c68
-64 24 -163 -81 -186 -27 -5 -37 -2 -58 19 -32 32 -36 84 -13 158 8 29 8 41
-1 52 -9 10 -12 59 -12 153 0 76 -3 202 -5 280 -4 114 -2 149 9 172 13 26 13
35 1 68 -16 46 -18 232 -3 286 15 54 41 77 87 77 28 0 45 -7 62 -24z m-1005
-82 c28 -11 42 -56 49 -157 10 -141 -9 -187 -78 -187 -14 0 -39 12 -56 28 -26
24 -31 37 -40 112 -16 131 -14 157 15 185 24 25 73 33 110 19z m-10325 -297
c0 -5 -11 -6 -25 -3 -18 5 -25 2 -25 -9 0 -8 -4 -15 -10 -15 -16 0 -11 32 7
45 13 10 21 10 35 1 10 -6 18 -15 18 -19z m-176 -22 c-29 -25 -46 -29 -45 -10
1 6 7 10 14 10 6 0 20 8 30 18 10 10 21 16 24 13 4 -3 -7 -17 -23 -31z m101
-30 c21 -9 24 -14 11 -14 -13 -1 -16 -6 -12 -18 5 -13 1 -12 -11 4 -10 12 -31
23 -48 25 -16 2 -28 8 -25 13 3 6 13 9 24 7 13 -1 16 2 12 14 -3 9 -3 21 1 27
5 7 10 1 13 -17 3 -19 15 -32 35 -41z m11072 11 c28 -24 28 -26 28 -134 0
-141 -7 -152 -106 -152 -134 0 -373 21 -401 36 -47 24 -67 92 -48 162 18 68
35 74 269 93 113 9 211 17 218 18 7 0 25 -10 40 -23z m-11332 -6 c-3 -5 -11
-10 -16 -10 -6 0 -7 5 -4 10 3 6 11 10 16 10 6 0 7 -4 4 -10z m92 -12 c-3 -8
-6 -5 -6 6 -1 11 2 17 5 13 3 -3 4 -12 1 -19z m1156 4 c17 -19 38 -105 36
-151 -1 -24 -2 -23 -9 6 -4 17 -16 47 -28 66 -23 40 -38 97 -24 97 5 0 16 -8
25 -18z m-160 -34 c6 -40 -6 -54 -55 -63 -41 -8 -46 0 -27 38 33 64 74 76 82
25z m-918 3 c3 -6 -4 -9 -15 -8 -11 1 -20 5 -20 9 0 11 28 10 35 -1z m10533
-13 c7 -1 24 -12 37 -24 31 -28 35 -91 8 -101 -10 -4 -33 -19 -51 -35 -41 -35
-72 -36 -111 -2 -26 22 -31 33 -31 71 0 36 6 50 30 75 27 26 36 29 68 24 20
-3 43 -7 50 -8z m-10381 -14 c-3 -3 -12 -4 -19 -1 -8 3 -5 6 6 6 11 1 17 -2
13 -5z m833 -45 c32 -18 41 -32 61 -90 23 -66 23 -69 6 -105 -10 -20 -27 -38
-38 -41 -11 -3 -31 -26 -43 -52 -29 -57 -51 -77 -94 -86 l-34 -7 16 24 c9 14
27 30 41 36 14 6 25 16 25 21 0 5 6 16 14 23 7 8 17 24 20 36 6 18 3 22 -13
22 -25 0 -26 18 -5 79 10 31 12 47 4 55 -13 13 -13 36 1 36 7 0 22 -11 35 -26
28 -29 29 -26 10 21 -8 18 -24 38 -35 45 -19 10 -29 30 -15 30 4 0 23 -10 44
-21z m-1170 7 c0 -11 -19 -15 -25 -6 -3 5 1 10 9 10 9 0 16 -2 16 -4z m2506
-59 c20 1 21 -3 17 -71 -11 -192 49 -430 168 -669 38 -75 69 -140 69 -142 0
-11 -586 -4 -620 8 -29 10 -40 23 -68 79 -39 80 -35 97 33 127 57 25 149 44
176 36 18 -6 20 -4 14 17 -11 36 -24 47 -89 80 -76 38 -147 58 -208 58 -25 0
-48 4 -50 9 -1 5 -21 17 -42 27 -46 22 -57 43 -28 51 12 3 28 16 37 29 8 13
25 24 36 24 25 0 71 23 89 45 7 9 31 25 53 36 38 18 42 18 59 2 23 -20 23 -14
-2 78 -22 83 -25 119 -10 119 6 0 10 -5 10 -10 0 -7 7 -7 21 1 28 14 30 11 75
-126 72 -218 93 -264 133 -284 46 -24 101 -36 101 -23 0 6 -10 50 -21 99 -17
66 -22 122 -23 223 -1 154 6 196 32 184 9 -4 26 -7 38 -7z m214 -106 c0 -11
-4 -23 -10 -26 -6 -4 -10 5 -10 19 0 14 5 26 10 26 6 0 10 -9 10 -19z m-1744
-46 c25 -72 -11 -106 -43 -40 -13 28 -14 39 -5 61 16 34 31 27 48 -21z m254
-96 c0 -6 -4 -7 -10 -4 -5 3 -10 11 -10 16 0 6 5 7 10 4 6 -3 10 -11 10 -16z
m-57 -106 c28 -17 -24 -86 -75 -98 -35 -9 -45 13 -27 58 20 49 31 57 64 51 17
-4 33 -8 38 -11z m3505 -461 c10 -7 9 -15 -5 -40 -10 -18 -21 -32 -25 -32 -12
0 -9 14 8 38 26 38 9 35 -20 -3 -29 -38 -54 -49 -36 -16 17 32 11 34 -16 4
-29 -32 -28 -27 5 39 24 46 25 46 50 33 14 -8 32 -18 39 -23z m542 3 c0 -3 -6
-21 -14 -40 l-15 -35 -261 0 -260 0 11 23 c22 41 29 46 55 37 44 -17 170 -28
220 -19 196 35 264 44 264 34z m4644 -252 c-19 -54 -67 -188 -108 -298 l-73
-200 -1676 -3 -1677 -2 0 -130 0 -130 -32 0 c-32 0 -36 6 -98 116 l-65 116 -3
-116 c-3 -116 -3 -116 -27 -116 l-25 0 0 130 0 130 -124 0 c-123 0 -125 0
-145 -26 -16 -20 -21 -41 -21 -86 0 -78 27 -108 95 -108 l45 0 0 40 c0 38 -2
40 -30 40 -25 0 -30 4 -30 26 0 24 2 25 53 22 l52 -3 3 -77 3 -76 -31 -7 c-52
-11 -116 -7 -149 9 -66 34 -85 131 -46 229 6 15 0 17 -64 17 l-71 0 0 -110 c0
-89 3 -112 15 -116 8 -4 15 -12 15 -20 0 -10 -15 -14 -55 -14 -40 0 -55 4 -55
14 0 8 7 16 15 20 12 4 15 27 15 116 l0 110 -91 0 c-83 0 -90 -2 -84 -17 4
-10 24 -69 46 -131 l38 -113 -26 3 c-21 2 -29 12 -41 46 l-14 42 -53 0 -53 0
-14 -42 c-12 -34 -20 -44 -41 -46 l-26 -3 45 126 c24 69 44 128 44 130 0 3
-30 5 -68 5 l-68 0 4 -40 c3 -33 -1 -44 -26 -70 -24 -24 -39 -30 -71 -30 l-41
0 0 -60 c0 -57 -1 -60 -25 -60 l-25 0 0 130 0 130 -60 0 -60 0 0 -130 c0 -123
-1 -130 -20 -130 -18 0 -20 8 -22 123 l-3 122 -41 -120 c-36 -107 -43 -120
-64 -120 -20 0 -27 13 -60 115 l-38 115 -1 -117 -1 -118 -25 0 -25 0 0 130 0
130 -80 0 c-44 0 -80 -4 -80 -10 0 -5 18 -60 40 -121 22 -62 40 -116 40 -121
0 -4 -11 -8 -24 -8 -19 0 -26 8 -36 45 l-13 46 -55 -3 -55 -3 -15 -42 c-11
-35 -18 -43 -39 -43 -28 0 -30 -11 27 153 l38 107 -139 0 -139 0 -17 -27 c-25
-38 -23 -125 4 -160 18 -25 27 -28 77 -28 51 1 57 -1 54 -20 -6 -40 -119 -37
-162 5 -43 39 -56 123 -32 193 l14 37 -209 0 -209 0 -20 -32 c-22 -37 -26 -89
-9 -137 14 -38 35 -51 88 -51 41 0 41 0 41 39 0 36 -3 40 -27 43 -20 2 -28 9
-28 23 0 17 8 20 53 23 l52 3 0 -80 c0 -91 0 -91 -95 -92 -66 -1 -100 18 -127
72 -22 42 -23 120 -3 159 l16 30 -66 0 -65 0 0 -130 0 -130 -33 0 c-31 0 -35
5 -97 116 l-65 116 -3 -116 c-3 -116 -3 -116 -27 -116 l-25 0 0 130 0 130 -60
0 -60 0 0 -110 c0 -89 3 -112 15 -116 8 -4 15 -12 15 -20 0 -10 -15 -14 -60
-14 -44 0 -60 4 -60 14 0 7 9 16 20 19 19 5 20 14 20 120 0 107 -2 116 -20
122 -39 12 -23 35 24 35 l44 0 35 98 c20 53 64 177 99 274 l63 178 3357 0
3357 0 -35 -97z m-7656 -459 c14 -4 22 -13 20 -23 -3 -13 -14 -15 -54 -13 -91
6 -99 -50 -14 -93 83 -42 101 -91 52 -146 -23 -25 -35 -31 -72 -31 -60 -1 -90
9 -90 31 0 15 9 18 61 17 48 -1 64 3 73 17 16 25 -1 47 -60 77 -54 28 -78 65
-68 105 13 52 79 78 152 59z m266 -8 c44 -18 62 -62 46 -110 -15 -46 -33 -59
-89 -66 l-46 -5 -3 -57 c-3 -54 -5 -58 -27 -58 l-25 0 0 148 c0 82 3 152 7
155 11 12 103 7 137 -7z m318 -14 c33 -33 31 -97 -3 -126 l-26 -23 38 -64 39
-64 -27 -3 c-15 -2 -29 0 -30 5 -2 4 -17 32 -33 61 -24 41 -36 52 -55 52 -24
0 -25 -3 -25 -60 0 -57 -1 -60 -25 -60 l-25 0 0 148 c0 82 3 152 8 156 4 4 37
6 75 4 53 -3 72 -8 89 -26z m-2146 -1407 c30 -25 60 -45 66 -45 9 0 9 -3 0
-12 -8 -8 -15 -8 -24 -1 -7 6 -30 8 -50 6 -29 -4 -38 -10 -38 -24 0 -16 8 -19
45 -19 25 0 45 -4 45 -10 0 -5 -20 -10 -45 -10 -43 0 -45 -1 -45 -30 0 -21 5
-30 17 -30 9 0 13 3 10 7 -8 7 21 43 35 43 5 0 1 -11 -8 -25 l-16 -25 36 0
c20 0 36 -4 36 -10 0 -6 -47 -10 -120 -10 -73 0 -120 4 -120 10 0 6 16 10 36
10 l36 0 -16 25 c-14 21 -14 25 -2 25 13 0 31 -27 28 -42 -1 -5 5 -8 13 -8 10
0 15 10 15 30 0 29 -2 30 -45 30 -25 0 -45 5 -45 10 0 6 20 10 45 10 37 0 45
3 45 19 0 14 -9 20 -35 23 -19 2 -39 0 -44 -5 -5 -5 -17 -7 -27 -3 -14 5 -8
12 29 36 25 16 52 38 59 50 7 11 16 20 21 20 4 0 32 -20 63 -45z m6994 35 c0
-5 25 -10 55 -10 30 0 55 -4 55 -10 0 -5 -25 -10 -55 -10 -30 0 -55 -4 -55
-10 0 -5 20 -10 45 -10 l45 0 0 -45 c0 -38 -3 -45 -20 -45 -11 0 -20 -4 -20
-10 0 -5 14 -10 30 -10 17 0 30 -4 30 -10 0 -5 -13 -10 -29 -10 -25 0 -30 -4
-33 -27 -2 -22 -9 -29 -30 -31 -16 -2 -28 1 -28 7 0 6 9 11 20 11 13 0 20 7
20 20 0 17 -7 20 -52 20 -51 0 -52 -1 -30 -16 12 -8 20 -20 17 -25 -4 -5 -17
-1 -30 8 -12 10 -21 21 -18 26 2 4 -5 7 -16 7 -12 0 -21 5 -21 10 0 6 32 10
75 10 43 0 75 4 75 10 0 6 -28 10 -65 10 l-65 0 0 45 0 45 40 0 c22 0 40 5 40
10 0 6 -22 10 -50 10 -27 0 -50 5 -50 10 0 6 23 10 50 10 28 0 50 5 50 10 0 6
5 10 10 10 6 0 10 -4 10 -10z m-7279 -26 c13 -14 38 -34 56 -45 18 -12 30 -25
27 -30 -3 -6 -16 -4 -30 6 -13 8 -24 11 -24 5 0 -6 -27 -10 -65 -10 -37 0 -65
4 -65 10 0 6 27 10 62 10 l62 0 -28 29 -28 29 -55 -44 c-30 -25 -59 -41 -66
-37 -7 4 -5 10 8 17 10 6 37 28 59 48 23 21 46 38 52 38 6 0 21 -12 35 -26z
m3479 6 c0 -13 7 -20 20 -20 11 0 20 5 20 10 0 6 30 10 70 10 l70 0 -1 -67
c-1 -109 -10 -147 -38 -151 -13 -2 -28 1 -34 7 -8 8 -4 11 15 11 22 0 26 6 32
38 3 20 6 61 6 90 0 48 -2 52 -24 52 -21 0 -24 -6 -30 -56 -6 -54 -35 -126
-56 -139 -23 -14 -27 7 -5 30 23 26 45 93 45 139 0 20 -5 26 -22 26 -16 0 -29
-12 -45 -40 -12 -22 -17 -40 -13 -40 5 0 12 5 15 10 3 6 11 10 17 10 7 0 6 -6
-2 -15 -9 -11 -10 -18 -1 -28 17 -21 0 -29 -21 -10 -17 15 -18 14 -18 -35 0
-29 -4 -52 -10 -52 -5 0 -10 20 -10 45 0 42 -11 58 -25 35 -4 -6 -10 -8 -14
-5 -5 2 9 23 30 46 22 23 39 46 39 51 0 4 -16 8 -35 8 -19 0 -35 5 -35 10 0 6
9 10 20 10 13 0 20 7 20 20 0 11 5 20 10 20 6 0 10 -9 10 -20z m-3770 -22 c1
-46 31 -109 74 -150 21 -21 33 -39 27 -42 -15 -10 -88 70 -101 110 l-12 36
-23 -49 c-24 -52 -80 -107 -97 -97 -6 4 5 20 26 38 31 27 86 126 86 156 0 6
-13 10 -30 10 -16 0 -30 5 -30 10 0 6 18 10 40 10 38 0 40 -1 40 -32z m4188
-80 l-3 -113 -29 -3 c-16 -2 -33 1 -39 7 -8 8 -2 11 21 11 29 0 32 3 32 30 l0
30 -64 0 c-58 0 -65 -2 -72 -22 -8 -30 -34 -59 -45 -52 -5 3 1 19 14 35 17 24
23 47 26 110 l3 79 79 0 80 0 -3 -112z m3750 0 c-3 -110 -4 -113 -27 -116 -13
-2 -28 1 -34 7 -8 8 -3 11 16 11 23 0 27 4 27 30 0 28 -3 30 -35 30 -34 0 -35
-1 -35 -40 0 -22 -4 -40 -10 -40 -5 0 -10 18 -10 41 l0 40 -37 -3 c-32 -3 -38
-7 -45 -35 -8 -31 -24 -50 -34 -41 -2 3 3 21 11 41 9 22 15 67 15 112 l0 75
100 0 101 0 -3 -112z m702 87 c0 -23 3 -25 51 -25 l52 0 -6 -66 c-4 -37 -12
-73 -18 -80 -13 -16 -65 -19 -74 -4 -4 6 6 10 24 10 36 0 40 6 48 70 l6 51
-43 -3 c-41 -3 -44 -5 -53 -38 -11 -42 -53 -100 -73 -100 -20 0 -18 8 11 33
14 12 32 40 40 62 l13 40 -39 3 c-51 4 -51 22 1 22 36 0 40 3 40 25 0 14 5 25
10 25 6 0 10 -11 10 -25z m-7791 -9 c70 -37 64 -149 -10 -175 -43 -15 -59 -2
-19 16 41 17 59 40 60 76 0 30 -42 81 -62 75 -7 -3 -17 -27 -23 -55 -22 -95
-65 -130 -99 -81 -59 84 58 193 153 144z m3580 0 c70 -37 64 -149 -10 -175
-43 -15 -59 -2 -19 16 41 17 59 40 60 76 0 30 -42 81 -62 75 -7 -3 -17 -27
-23 -55 -22 -95 -65 -130 -99 -81 -59 84 58 193 153 144z m5061 -101 l0 -115
125 0 125 0 0 -25 0 -25 -125 0 -125 0 0 -60 0 -60 150 0 150 0 0 -25 0 -25
-150 0 -150 0 0 -100 0 -100 -25 0 -25 0 0 100 0 100 -145 0 -145 0 0 25 0 25
145 0 145 0 0 60 0 60 -120 0 -120 0 0 25 0 25 120 0 120 0 0 115 0 115 25 0
25 0 0 -115z m560 85 l0 -30 60 0 60 0 0 -55 c0 -52 -1 -55 -25 -55 -22 0 -25
4 -25 35 l0 35 -100 0 -100 0 0 -35 c0 -31 -3 -35 -25 -35 -24 0 -25 3 -25 55
l0 55 65 0 65 0 0 30 c0 25 4 30 25 30 21 0 25 -5 25 -30z m-1850 -75 c0 -57
-4 -95 -10 -95 -5 0 -10 5 -10 10 0 6 -32 10 -75 10 -43 0 -75 -4 -75 -10 0
-5 -4 -10 -10 -10 -6 0 -10 38 -10 95 l0 95 95 0 95 0 0 -95z m1112 9 c21 -38
38 -72 38 -75 0 -3 -10 -10 -22 -16 -21 -9 -26 -4 -65 69 -24 44 -43 81 -43
83 0 5 34 13 45 11 5 -2 26 -34 47 -72z m391 68 c15 -7 12 -16 -28 -86 -25
-44 -47 -81 -49 -83 -2 -3 -14 0 -25 6 -20 11 -20 13 22 91 42 80 47 84 80 72z
m-1313 -47 c0 -7 -3 -15 -7 -19 -9 -8 -32 46 -25 58 6 10 32 -22 32 -39z
m2120 25 c0 -18 -7 -20 -69 -20 -68 0 -69 0 -80 -31 -6 -18 -11 -36 -11 -40 0
-5 32 -9 70 -9 l70 0 0 -185 0 -185 -145 0 -145 0 0 185 0 185 50 0 c41 0 50
3 50 18 0 9 3 27 6 40 6 21 4 22 -60 22 -59 0 -66 2 -66 20 0 19 7 20 165 20
158 0 165 -1 165 -20z m-2046 2 c12 -19 -43 -111 -81 -135 -54 -35 -73 -21
-19 14 42 28 76 79 76 113 0 17 15 22 24 8z m-144 -21 c12 -24 13 -41 1 -41
-5 0 -14 14 -20 30 -11 33 2 41 19 11z m-7179 -101 c21 -47 46 -103 54 -124
l16 -39 50 114 c28 63 53 120 56 127 3 6 21 12 40 12 l35 0 -66 -126 c-36 -69
-66 -128 -66 -130 0 -2 25 -4 55 -4 48 0 55 -2 55 -20 0 -18 -7 -20 -65 -20
-63 0 -65 -1 -65 -25 0 -24 2 -25 65 -25 58 0 65 -2 65 -20 0 -18 -7 -20 -65
-20 l-65 0 0 -65 0 -65 -30 0 -30 0 0 65 0 65 -65 0 c-58 0 -65 2 -65 20 0 18
7 20 65 20 63 0 65 1 65 25 0 24 -2 25 -65 25 -58 0 -65 2 -65 20 0 18 7 20
55 20 30 0 55 2 55 6 0 3 -30 61 -66 130 l-66 125 38 -3 c37 -3 38 -5 75 -88z
m536 70 c42 -25 63 -59 79 -128 25 -105 11 -255 -30 -317 -24 -36 -75 -65
-116 -65 -41 0 -92 29 -116 65 -56 85 -56 315 0 400 40 62 123 82 183 45z
m3294 -70 c21 -47 46 -103 54 -124 l16 -39 50 114 c28 63 53 120 56 127 3 6
21 12 40 12 l35 0 -66 -126 c-36 -69 -66 -128 -66 -130 0 -2 25 -4 55 -4 48 0
55 -2 55 -20 0 -18 -7 -20 -65 -20 -63 0 -65 -1 -65 -25 0 -24 2 -25 65 -25
58 0 65 -2 65 -20 0 -18 -7 -20 -65 -20 l-65 0 0 -65 0 -65 -30 0 -30 0 0 65
0 65 -65 0 c-58 0 -65 2 -65 20 0 18 7 20 65 20 63 0 65 1 65 25 0 24 -2 25
-65 25 -58 0 -65 2 -65 20 0 18 7 20 55 20 30 0 55 2 55 6 0 3 -30 61 -66 130
l-66 125 38 -3 c37 -3 38 -5 75 -88z m536 70 c42 -25 63 -59 79 -128 25 -105
11 -255 -30 -317 -24 -36 -75 -65 -116 -65 -41 0 -92 29 -116 65 -23 36 -44
129 -44 200 0 71 21 164 44 200 40 62 123 82 183 45z m3513 10 c0 -6 -42 -10
-105 -10 -63 0 -105 4 -105 10 0 6 42 10 105 10 63 0 105 -4 105 -10z m-8650
-20 c0 -5 -30 -10 -66 -12 -56 -3 -69 -7 -82 -25 -14 -23 -14 -23 38 -23 52 0
53 0 35 20 -28 31 -1 23 35 -10 17 -16 29 -34 25 -40 -5 -8 -11 -8 -21 1 -10
8 -39 9 -99 4 -59 -5 -85 -3 -85 4 0 6 8 11 18 11 15 0 42 36 42 55 0 3 -16 5
-35 5 -19 0 -35 5 -35 10 0 6 45 10 115 10 66 0 115 -4 115 -10z m-1472 -58
c2 -20 9 -32 18 -32 8 0 14 -9 14 -20 0 -17 7 -20 40 -20 33 0 40 3 40 20 0
16 -7 20 -35 20 -24 0 -35 5 -35 15 0 10 10 15 34 15 25 0 35 5 39 20 3 11 10
20 17 20 7 0 14 -9 17 -20 4 -14 14 -20 34 -20 19 0 29 -5 29 -15 0 -10 -10
-15 -30 -15 -23 0 -30 -4 -30 -20 0 -17 7 -20 40 -20 29 0 40 -4 40 -15 0 -8
-9 -15 -20 -15 -11 0 -20 -6 -20 -14 0 -7 9 -16 20 -19 11 -3 20 -10 20 -17 0
-7 -9 -14 -20 -17 -17 -4 -20 -14 -20 -54 0 -38 -4 -51 -19 -59 -33 -17 -61
-12 -61 10 0 13 7 20 20 20 17 0 20 7 20 40 0 39 -1 40 -36 40 l-36 0 16 -25
c16 -24 14 -45 -2 -45 -4 0 -16 14 -25 30 -10 17 -15 30 -10 30 4 0 -3 7 -15
16 -33 23 -42 10 -42 -62 0 -50 -3 -64 -15 -64 -12 0 -15 13 -15 61 l0 61 -27
-6 c-41 -11 -51 16 -10 30 26 9 33 17 35 42 4 37 -22 46 -33 12 -6 -20 -16
-25 -27 -15 -3 3 0 31 6 63 12 58 28 75 34 35 5 -37 22 -26 22 13 0 45 24 42
28 -4z m392 13 c0 -33 37 -35 42 -2 2 12 10 22 18 22 8 0 16 -10 18 -22 3 -19
10 -23 38 -23 l34 0 0 -80 c0 -64 3 -80 15 -80 8 0 15 -9 15 -20 0 -17 -7 -20
-47 -20 l-48 -1 37 -19 c43 -23 53 -36 37 -46 -16 -10 -101 38 -94 53 3 9 -8
13 -40 13 -33 0 -43 -3 -39 -13 3 -8 -14 -24 -44 -40 -43 -23 -51 -25 -62 -13
-9 12 -4 19 32 38 l43 23 -44 5 c-48 5 -67 28 -32 37 19 5 21 12 21 84 l0 79
35 0 c31 0 35 3 35 25 0 16 6 25 15 25 9 0 15 -9 15 -25z m3458 -13 c2 -20 9
-32 18 -32 8 0 14 -9 14 -20 0 -17 7 -20 40 -20 33 0 40 3 40 20 0 16 -7 20
-35 20 -24 0 -35 5 -35 15 0 10 10 15 34 15 25 0 35 5 39 20 3 11 10 20 17 20
7 0 14 -9 17 -20 4 -14 14 -20 34 -20 19 0 29 -5 29 -15 0 -10 -10 -15 -30
-15 -23 0 -30 -4 -30 -20 0 -17 7 -20 40 -20 29 0 40 -4 40 -15 0 -8 -9 -15
-20 -15 -11 0 -20 -6 -20 -14 0 -7 9 -16 20 -19 11 -3 20 -10 20 -17 0 -7 -9
-14 -20 -17 -17 -4 -20 -14 -20 -54 0 -38 -4 -51 -19 -59 -33 -17 -61 -12 -61
10 0 13 7 20 20 20 17 0 20 7 20 40 0 39 -1 40 -36 40 l-36 0 16 -25 c16 -24
14 -45 -2 -45 -4 0 -16 14 -25 30 -10 17 -15 30 -10 30 4 0 -3 7 -15 16 -33
23 -42 10 -42 -62 0 -50 -3 -64 -15 -64 -12 0 -15 13 -15 61 l0 61 -27 -6
c-41 -11 -51 16 -10 30 26 9 33 17 35 42 4 37 -22 46 -33 12 -6 -20 -16 -25
-27 -15 -3 3 0 31 6 63 12 58 28 75 34 35 5 -37 22 -26 22 13 0 45 24 42 28
-4z m392 13 c0 -33 37 -35 42 -2 2 12 10 22 18 22 8 0 16 -10 18 -22 3 -19 10
-23 38 -23 l34 0 0 -80 c0 -64 3 -80 15 -80 8 0 15 -9 15 -20 0 -17 -7 -20
-47 -20 l-48 -1 37 -19 c43 -23 53 -36 37 -46 -16 -10 -101 38 -94 53 3 9 -8
13 -40 13 -33 0 -43 -3 -39 -13 3 -8 -14 -24 -44 -40 -43 -23 -51 -25 -62 -13
-9 12 -4 19 32 38 l43 23 -44 5 c-48 5 -67 28 -32 37 19 5 21 12 21 84 l0 79
35 0 c31 0 35 3 35 25 0 16 6 25 15 25 9 0 15 -9 15 -25z m3338 -13 c2 -20 9
-32 18 -32 8 0 14 -9 14 -20 0 -17 7 -20 40 -20 33 0 40 3 40 20 0 16 -7 20
-35 20 -24 0 -35 5 -35 15 0 10 10 15 34 15 25 0 35 5 39 20 3 11 10 20 17 20
7 0 14 -9 17 -20 4 -14 14 -20 34 -20 19 0 29 -5 29 -15 0 -10 -10 -15 -30
-15 -23 0 -30 -4 -30 -20 0 -17 7 -20 40 -20 29 0 40 -4 40 -15 0 -8 -9 -15
-20 -15 -11 0 -20 -6 -20 -14 0 -7 9 -16 20 -19 11 -3 20 -10 20 -17 0 -7 -9
-14 -20 -17 -17 -4 -20 -14 -20 -54 0 -38 -4 -51 -19 -59 -33 -17 -61 -12 -61
10 0 13 7 20 20 20 17 0 20 7 20 40 0 39 -1 40 -36 40 l-36 0 16 -25 c16 -24
14 -45 -2 -45 -4 0 -16 14 -25 30 -10 17 -15 30 -10 30 4 0 -3 7 -15 16 -33
23 -42 10 -42 -62 0 -50 -3 -64 -15 -64 -12 0 -15 13 -15 61 l0 61 -27 -6
c-41 -11 -51 16 -10 30 26 9 33 17 35 42 4 37 -22 46 -33 12 -6 -20 -16 -25
-27 -15 -3 3 0 31 6 63 12 58 28 75 34 35 5 -37 22 -26 22 13 0 45 24 42 28
-4z m392 13 c0 -33 37 -35 42 -2 2 12 10 22 18 22 8 0 16 -10 18 -22 3 -19 10
-23 38 -23 l34 0 0 -80 c0 -64 3 -80 15 -80 8 0 15 -9 15 -20 0 -17 -7 -20
-47 -20 l-48 -1 37 -19 c43 -23 53 -36 37 -46 -16 -10 -101 38 -94 53 3 9 -8
13 -40 13 -33 0 -43 -3 -39 -13 3 -8 -14 -24 -44 -40 -43 -23 -51 -25 -62 -13
-9 12 -4 19 32 38 l43 23 -44 5 c-48 5 -67 28 -32 37 19 5 21 12 21 84 l0 79
35 0 c31 0 35 3 35 25 0 16 6 25 15 25 9 0 15 -9 15 -25z m3153 19 c3 -4 2
-15 -3 -25 -9 -16 -5 -18 52 -21 34 -2 63 -8 65 -13 2 -6 -12 -36 -31 -67
l-34 -57 54 -42 c52 -40 54 -43 38 -60 -9 -10 -21 -16 -25 -13 -5 3 -9 -36 -9
-85 0 -57 4 -91 10 -91 17 0 73 30 97 53 21 18 26 19 49 7 l25 -14 -23 -18
c-13 -10 -46 -30 -75 -45 l-52 -28 -24 23 c-20 19 -34 22 -100 22 -62 0 -77
-3 -77 -15 0 -9 -9 -15 -25 -15 l-25 0 0 100 c0 94 -1 100 -18 91 -14 -7 -21
-5 -30 9 -10 16 -6 21 31 39 23 11 57 33 76 49 l34 28 -32 23 -32 23 -23 -21
c-20 -19 -23 -20 -38 -4 -16 15 -14 19 26 60 24 24 51 59 62 78 17 32 41 44
57 29z m-10413 -144 l0 -110 25 0 c19 0 25 -5 25 -20 0 -19 -5 -21 -72 -18
-57 2 -73 6 -73 18 0 9 11 16 28 18 l27 3 0 85 c0 76 -2 84 -19 84 -34 0 -34
20 1 35 58 25 58 25 58 -95z m3870 90 c30 -30 26 -88 -9 -138 -16 -22 -36 -44
-43 -49 -8 -5 5 -10 37 -13 36 -4 50 -9 50 -20 0 -12 -17 -16 -82 -18 -98 -3
-103 4 -42 63 47 46 69 84 69 118 0 43 -44 63 -70 32 -10 -12 -16 -13 -27 -3
-13 10 -12 15 7 30 30 24 85 23 110 -2z m3739 -7 c22 -27 21 -54 -5 -83 -11
-13 -10 -18 6 -28 29 -18 28 -86 -2 -106 -46 -33 -149 -10 -134 29 5 15 8 15
28 1 45 -32 93 -12 86 36 -2 15 -13 25 -35 32 -35 9 -45 36 -15 36 24 0 42 19
42 46 0 28 -31 40 -61 24 -31 -17 -52 5 -25 26 34 24 91 18 115 -13z m-6280
-228 c0 -5 -6 -1 -14 9 -8 10 -11 24 -8 29 6 10 21 -16 22 -38z m2895 36 c3
-5 -5 -12 -19 -15 -36 -9 -36 -56 0 -56 14 0 25 -4 25 -10 0 -5 -11 -10 -25
-10 -32 0 -32 -10 0 -40 28 -26 23 -50 -6 -24 -18 17 -19 16 -19 -34 0 -29 -4
-52 -10 -52 -6 0 -10 26 -10 58 l0 57 -19 -31 c-21 -34 -41 -51 -41 -35 0 6
11 27 25 47 14 20 25 41 25 45 0 5 -11 9 -25 9 -14 0 -25 5 -25 10 0 6 14 10
30 10 23 0 30 5 30 19 0 15 -8 21 -32 23 -36 4 -28 9 37 26 55 13 53 13 59 3z
m114 -113 l-3 -123 -32 -3 c-19 -2 -33 1 -33 7 0 6 11 11 25 11 l25 0 0 115
c0 72 4 115 10 115 7 0 10 -43 8 -122z m372 77 c0 -38 3 -45 20 -45 26 0 26
-18 0 -22 -20 -3 -19 -4 3 -31 20 -25 26 -27 65 -21 l42 7 0 78 c0 46 4 79 10
79 6 0 10 -32 10 -75 0 -60 3 -75 15 -75 8 0 15 -4 15 -10 0 -5 -7 -10 -15
-10 -11 0 -15 -11 -15 -40 0 -22 -4 -40 -10 -40 -5 0 -10 16 -10 36 0 37 0 37
-37 31 -21 -4 -42 -2 -50 5 -7 6 -13 7 -13 2 -1 -5 -7 2 -15 16 -14 24 -14 22
-15 -32 0 -32 -4 -58 -10 -58 -5 0 -10 24 -10 53 l-1 52 -16 -35 c-8 -19 -17
-30 -20 -23 -2 6 3 25 11 42 20 38 20 51 1 51 -8 0 -15 5 -15 10 0 6 9 10 20
10 17 0 20 7 20 45 0 25 5 45 10 45 6 0 10 -20 10 -45z m449 0 c0 -5 -6 -1
-14 9 -8 10 -11 24 -8 29 6 10 21 -16 22 -38z m3335 36 c3 -5 -5 -12 -19 -15
-36 -9 -36 -56 0 -56 14 0 25 -4 25 -10 0 -5 -11 -10 -25 -10 -32 0 -32 -10 0
-40 28 -26 23 -50 -6 -24 -18 17 -19 16 -19 -34 0 -29 -4 -52 -10 -52 -6 0
-10 26 -10 58 l0 57 -19 -31 c-21 -34 -41 -51 -41 -35 0 6 11 27 25 47 14 20
25 41 25 45 0 5 -11 9 -25 9 -14 0 -25 5 -25 10 0 6 14 10 30 10 23 0 30 5 30
19 0 15 -8 21 -32 23 -36 4 -28 9 37 26 55 13 53 13 59 3z m114 -113 l-3 -123
-32 -3 c-19 -2 -33 1 -33 7 0 6 11 11 25 11 l25 0 0 115 c0 72 4 115 10 115 7
0 10 -43 8 -122z m372 77 c0 -38 3 -45 20 -45 26 0 26 -18 0 -22 -20 -3 -19
-4 3 -31 20 -25 26 -27 65 -21 l42 7 0 78 c0 46 4 79 10 79 6 0 10 -32 10 -75
0 -60 3 -75 15 -75 8 0 15 -4 15 -10 0 -5 -7 -10 -15 -10 -11 0 -15 -11 -15
-40 0 -22 -4 -40 -10 -40 -5 0 -10 16 -10 36 0 37 0 37 -37 31 -21 -4 -42 -2
-50 5 -7 6 -13 7 -13 2 -1 -5 -7 2 -15 16 -14 24 -14 22 -15 -32 0 -32 -4 -58
-10 -58 -5 0 -10 24 -10 53 l-1 52 -16 -35 c-8 -19 -17 -30 -20 -23 -2 6 3 25
11 42 20 38 20 51 1 51 -8 0 -15 5 -15 10 0 6 9 10 20 10 17 0 20 7 20 45 0
25 5 45 10 45 6 0 10 -20 10 -45z m449 0 c0 -5 -6 -1 -14 9 -8 10 -11 24 -8
29 6 10 21 -16 22 -38z m-1259 26 c0 -6 37 -7 90 -4 64 4 90 3 90 -6 0 -6 -13
-11 -30 -11 -16 0 -30 -4 -30 -10 0 -5 11 -10 25 -10 24 0 25 -2 25 -70 l0
-70 -55 0 -55 0 0 70 c0 63 2 70 20 70 11 0 20 5 20 10 0 6 -11 10 -25 10 -16
0 -25 -6 -25 -15 0 -8 -3 -15 -7 -15 -5 0 -14 -12 -21 -27 -11 -25 -10 -29 9
-44 15 -11 18 -18 10 -23 -6 -4 -11 -23 -11 -43 0 -35 0 -35 25 -19 38 25 54
18 20 -9 -22 -18 -32 -21 -42 -13 -7 6 -29 8 -48 5 l-35 -6 0 40 c0 24 -4 38
-10 34 -23 -14 -8 14 15 29 28 19 24 40 -6 31 -24 -8 -24 0 1 25 22 22 26 40
10 40 -5 0 -10 -4 -10 -10 0 -5 -4 -10 -10 -10 -5 0 -10 9 -10 20 0 15 7 20
25 20 14 0 25 5 25 10 0 6 5 10 10 10 6 0 10 -4 10 -9z m-6988 -26 c-4 -21 -1
-25 21 -25 39 0 51 -23 44 -86 -3 -30 -11 -62 -18 -70 -15 -18 -69 -19 -69 0
0 9 8 12 25 8 20 -3 27 1 35 24 6 15 10 44 8 63 -3 30 -7 36 -29 39 -22 3 -28
-2 -34 -25 -13 -54 -48 -123 -61 -123 -10 0 -7 13 10 48 13 26 27 57 31 70 6
19 3 22 -24 22 -17 0 -31 5 -31 10 0 6 16 10 35 10 32 0 35 2 35 30 0 19 5 30
14 30 9 0 12 -8 8 -25z m112 9 c3 -9 4 -20 1 -25 -3 -4 3 -26 15 -48 11 -23
16 -42 10 -46 -5 -3 -21 17 -35 44 -16 32 -21 52 -14 56 6 4 8 13 5 21 -3 8
-1 14 3 14 5 0 12 -7 15 -16z m3304 -96 c-3 -110 -4 -113 -27 -116 -13 -2 -28
1 -34 7 -8 8 -3 11 16 11 23 0 27 4 27 30 0 28 -3 30 -35 30 -34 0 -35 -1 -35
-40 0 -22 -4 -40 -10 -40 -5 0 -10 18 -10 41 l0 40 -37 -3 c-32 -3 -38 -7 -45
-35 -8 -31 -24 -50 -34 -41 -2 3 3 21 11 41 9 22 15 67 15 112 l0 75 100 0
101 0 -3 -112z m77 75 c4 -14 2 -23 -4 -23 -6 0 -11 3 -11 8 0 4 -3 18 -6 32
-8 31 11 16 21 -17z m75 24 c0 -7 -7 -22 -16 -33 -14 -17 -15 -17 -10 -1 3 10
6 25 6 33 0 8 5 14 10 14 6 0 10 -6 10 -13z m75 -16 c3 -5 2 -12 -2 -14 -10
-7 -54 29 -46 36 6 7 39 -8 48 -22z m187 4 c-4 -21 -1 -25 21 -25 39 0 51 -23
44 -86 -3 -30 -11 -62 -18 -70 -15 -18 -69 -19 -69 0 0 9 8 12 25 8 20 -3 27
1 35 24 6 15 10 44 8 63 -3 30 -7 36 -29 39 -22 3 -28 -2 -34 -25 -13 -54 -48
-123 -61 -123 -10 0 -7 13 10 48 13 26 27 57 31 70 6 19 3 22 -24 22 -17 0
-31 5 -31 10 0 6 16 10 35 10 32 0 35 2 35 30 0 19 5 30 14 30 9 0 12 -8 8
-25z m112 9 c3 -9 4 -20 1 -25 -3 -4 3 -26 15 -48 11 -23 16 -42 10 -46 -5 -3
-21 17 -35 44 -16 32 -21 52 -14 56 6 4 8 13 5 21 -3 8 -1 14 3 14 5 0 12 -7
15 -16z m2914 -96 l-3 -113 -29 -3 c-16 -2 -33 1 -39 7 -8 8 -2 11 21 11 29 0
32 3 32 30 l0 30 -64 0 c-58 0 -65 -2 -72 -22 -8 -30 -34 -59 -45 -52 -5 3 1
19 14 35 17 24 23 47 26 110 l3 79 79 0 80 0 -3 -112z m830 0 c-3 -110 -4
-113 -27 -116 -13 -2 -28 1 -34 7 -8 8 -3 11 16 11 23 0 27 4 27 30 0 28 -3
30 -35 30 -34 0 -35 -1 -35 -40 0 -22 -4 -40 -10 -40 -5 0 -10 18 -10 41 l0
40 -37 -3 c-32 -3 -38 -7 -45 -35 -8 -31 -24 -50 -34 -41 -2 3 3 21 11 41 9
22 15 67 15 112 l0 75 100 0 101 0 -3 -112z m77 75 c4 -14 2 -23 -4 -23 -6 0
-11 3 -11 8 0 4 -3 18 -6 32 -8 31 11 16 21 -17z m75 24 c0 -7 -7 -22 -16 -33
-14 -17 -15 -17 -10 -1 3 10 6 25 6 33 0 8 5 14 10 14 6 0 10 -6 10 -13z m75
-16 c3 -5 2 -12 -2 -14 -10 -7 -54 29 -46 36 6 7 39 -8 48 -22z m187 4 c-4
-21 -1 -25 21 -25 39 0 51 -23 44 -86 -3 -30 -11 -62 -18 -70 -15 -18 -69 -19
-69 0 0 9 8 12 25 8 20 -3 27 1 35 24 6 15 10 44 8 63 -3 30 -7 36 -29 39 -22
3 -28 -2 -34 -25 -13 -54 -48 -123 -61 -123 -10 0 -7 13 10 48 13 26 27 57 31
70 6 19 3 22 -24 22 -17 0 -31 5 -31 10 0 6 16 10 35 10 32 0 35 2 35 30 0 19
5 30 14 30 9 0 12 -8 8 -25z m112 9 c3 -9 4 -20 1 -25 -3 -4 3 -26 15 -48 11
-23 16 -42 10 -46 -5 -3 -21 17 -35 44 -16 32 -21 52 -14 56 6 4 8 13 5 21 -3
8 -1 14 3 14 5 0 12 -7 15 -16z m-8894 -59 c0 -51 3 -65 15 -65 8 0 15 -4 15
-10 0 -5 -7 -10 -15 -10 -9 0 -15 -9 -15 -25 0 -14 -4 -25 -10 -25 -5 0 -10
11 -10 25 0 23 -4 25 -46 25 -25 0 -44 4 -42 8 14 36 86 142 96 142 8 0 12
-20 12 -65z m229 39 c23 -29 28 -85 11 -128 -12 -32 -50 -51 -85 -42 -35 9
-22 27 14 20 22 -5 32 -1 45 17 26 37 21 49 -13 36 -25 -9 -33 -8 -50 8 -25
22 -27 62 -5 93 21 30 58 28 83 -4z m155 10 c18 -17 20 -42 7 -63 -6 -10 -5
-22 5 -35 18 -27 18 -45 -3 -68 -20 -22 -61 -23 -91 -2 -26 18 -28 41 -6 73
12 17 13 26 5 34 -27 27 1 77 44 77 13 0 31 -7 39 -16z m142 2 c16 -12 19 -27
19 -86 0 -59 -3 -74 -19 -86 -11 -8 -25 -14 -31 -14 -6 0 -20 6 -31 14 -16 12
-19 27 -19 86 0 59 3 74 19 86 11 8 25 14 31 14 6 0 20 -6 31 -14z m3244 -61
c0 -43 -4 -75 -10 -75 -6 0 -10 32 -10 75 0 43 4 75 10 75 6 0 10 -32 10 -75z
m4270 0 c0 -43 -4 -75 -10 -75 -6 0 -10 32 -10 75 0 43 4 75 10 75 6 0 10 -32
10 -75z m-8249 18 l20 -48 21 48 c11 26 26 47 34 47 9 0 5 -13 -11 -42 -30
-53 -30 -56 -2 -61 19 -4 18 -4 -5 -6 -16 0 -28 -5 -28 -11 0 -5 12 -11 28
-11 l27 -2 -27 -4 c-22 -3 -28 -10 -28 -29 0 -13 -4 -24 -10 -24 -5 0 -10 11
-10 25 0 20 -5 25 -27 26 l-28 2 28 4 c15 2 27 9 27 14 0 5 -12 10 -27 10 -24
2 -25 2 -5 6 27 5 27 4 2 53 -23 45 -24 50 -10 50 6 0 20 -21 31 -47z m4505
-17 c10 -8 16 -17 13 -20 -3 -4 -17 2 -30 13 -27 23 -13 28 17 7z m4270 0 c10
-8 16 -17 13 -20 -3 -4 -17 2 -30 13 -27 23 -13 28 17 7z m1797 -100 c57 -44
58 -44 36 -59 -19 -14 -24 -14 -36 -2 -7 8 -34 29 -59 47 -41 29 -44 33 -28
45 24 17 21 18 87 -31z m-10265 -19 c4 -21 -26 -59 -40 -51 -5 3 -1 12 9 19
14 11 16 16 6 26 -18 18 -16 31 4 27 10 -2 19 -11 21 -21z m7736 -6 c10 -10
14 -21 9 -24 -10 -7 -54 28 -46 37 10 10 19 7 37 -13z m2017 -540 l29 -29 0
-272 0 -272 -29 -29 -29 -29 -5792 0 -5792 0 -29 29 -29 29 0 272 0 272 29 29
29 29 5792 0 5792 0 29 -29z"/>
<path d="M1370 8271 c-15 -29 -13 -33 20 -29 19 2 34 -3 40 -12 8 -13 10 -12
10 3 0 29 -19 57 -40 57 -11 0 -24 -9 -30 -19z"/>
<path d="M740 7965 c0 -20 4 -26 18 -23 9 2 17 12 17 23 0 11 -8 21 -17 23
-14 3 -18 -3 -18 -23z"/>
<path d="M8669 5764 c-38 -40 -187 -143 -236 -163 -34 -14 -39 -26 -24 -50 7
-11 19 -8 65 17 59 34 71 38 61 22 -4 -6 40 -10 124 -10 117 0 131 2 131 17 0
13 10 8 38 -19 l37 -37 28 21 28 20 -54 54 c-30 30 -68 79 -83 109 -36 68 -63
73 -115 19z m78 -91 l25 -43 -97 0 -97 0 69 54 c38 30 70 49 72 42 2 -6 15
-30 28 -53z"/>
<path d="M9254 5775 c-6 -24 -9 -24 -107 -27 l-101 -3 -50 -135 c-51 -136 -89
-211 -133 -264 -22 -27 -23 -29 -6 -42 16 -12 22 -10 49 22 30 33 96 155 128
237 14 34 18 37 55 37 46 0 47 -3 26 -54 l-15 -36 114 0 114 0 14 43 c14 40
17 42 59 45 42 3 59 14 59 40 0 7 -15 12 -41 12 -33 0 -40 3 -35 16 3 9 6 18
6 20 0 2 22 4 49 4 48 0 60 10 61 53 0 4 -43 7 -96 7 l-96 0 6 25 c6 23 3 25
-24 25 -23 0 -31 -5 -36 -25z m-91 -104 c-4 -15 -16 -20 -53 -23 -26 -1 -47
-1 -46 2 2 3 6 13 9 23 5 13 18 17 51 17 39 0 43 -2 39 -19z m165 2 c-2 -14
-15 -19 -61 -21 -31 -2 -57 -1 -57 2 0 27 16 36 67 36 46 0 54 -3 51 -17z
m-30 -90 c-2 -14 -15 -19 -61 -21 -43 -2 -57 0 -57 11 0 23 11 27 67 27 46 0
54 -3 51 -17z"/>
<path d="M11274 5760 c-16 -39 -18 -40 -63 -40 -41 0 -49 -3 -59 -25 -11 -25
-11 -25 36 -25 l47 0 -50 -48 c-28 -26 -63 -56 -78 -67 -25 -18 -27 -22 -15
-38 13 -18 17 -16 66 22 l52 41 -20 -50 c-11 -28 -20 -53 -20 -55 0 -3 13 -5
28 -5 26 0 30 5 46 55 19 60 27 66 50 33 15 -21 16 -21 36 -3 11 10 20 15 20
11 0 -16 -30 -76 -37 -74 -4 1 -18 -3 -31 -10 l-23 -13 23 -42 c12 -23 23 -43
24 -45 1 -1 13 3 28 9 30 14 32 26 10 57 l-15 22 73 0 c49 -1 68 -4 57 -10
-13 -8 -14 -17 -5 -63 11 -53 13 -57 39 -57 34 1 39 15 24 73 -14 54 -14 56 6
59 16 2 31 31 74 148 29 80 53 146 53 148 0 1 -51 2 -114 2 -113 0 -114 0
-120 -25 -6 -22 -12 -25 -52 -25 -44 0 -46 1 -40 24 3 13 9 31 12 40 5 12 0
16 -20 16 -21 0 -29 -8 -42 -40z m300 -55 c-5 -11 -22 -15 -65 -15 -48 0 -57
3 -53 15 5 11 22 15 65 15 48 0 57 -3 53 -15z m-200 -74 l-17 -42 -33 32 c-19
18 -34 36 -34 40 0 6 87 17 98 13 2 -1 -5 -20 -14 -43z m170 -6 c-5 -11 -22
-15 -65 -15 -48 0 -57 3 -53 15 5 11 22 15 65 15 48 0 57 -3 53 -15z m-31 -85
c-5 -17 -14 -20 -64 -20 -33 0 -59 2 -59 4 0 28 16 36 70 36 53 0 58 -2 53
-20z"/>
<path d="M12467 5775 c-15 -22 -26 -25 -75 -25 l-57 0 -46 -128 -46 -127 -45
-3 c-42 -3 -46 -5 -50 -33 l-5 -30 71 6 c39 3 94 8 121 10 l50 4 -40 -19 c-22
-11 -85 -34 -140 -52 -55 -17 -102 -33 -104 -34 -1 -2 1 -14 5 -27 l9 -25 99
33 c55 19 139 53 187 77 l87 43 -18 -45 -18 -45 -56 -3 c-55 -3 -56 -4 -56
-32 0 -29 1 -30 50 -30 88 0 110 22 154 155 10 31 27 57 45 70 36 26 101 83
101 89 0 3 -9 10 -19 16 -16 8 -26 5 -49 -15 l-30 -25 29 75 c16 42 29 80 29
86 0 5 -30 9 -67 9 -63 0 -65 1 -50 18 20 22 13 32 -22 32 -16 -1 -33 -10 -44
-25z m103 -100 c0 -12 -18 -15 -105 -15 -89 0 -104 2 -99 15 5 12 26 15 105
15 81 0 99 -3 99 -15z m-30 -80 c0 -12 -18 -15 -105 -15 -89 0 -104 2 -99 15
5 12 26 15 105 15 81 0 99 -3 99 -15z m-27 -76 c-7 -7 -57 -14 -113 -17 -90
-4 -100 -3 -94 12 5 13 23 16 112 16 80 0 103 -3 95 -11z"/>
<path d="M12871 5736 c-27 -34 -73 -84 -102 -111 -37 -34 -53 -56 -50 -70 4
-28 6 -29 35 -10 l26 17 -14 -38 c-8 -22 -30 -83 -50 -136 l-35 -98 29 0 c25
0 30 5 46 53 20 64 20 63 39 47 13 -11 19 -10 37 6 15 14 22 16 25 7 3 -8 21
-13 44 -13 21 0 39 -2 39 -4 0 -2 -7 -23 -15 -46 -19 -54 -20 -52 11 -48 21 2
30 12 44 48 17 43 19 45 64 48 35 2 46 7 46 20 0 14 4 12 19 -7 17 -23 19 -23
44 -6 15 9 27 19 27 20 0 2 -11 25 -25 52 -14 27 -28 75 -31 110 l-7 62 68 3
c60 3 69 6 76 26 8 22 7 22 -71 22 -44 0 -80 2 -80 5 0 2 9 27 20 55 l20 50
-29 0 c-25 0 -31 -6 -48 -52 l-20 -53 -75 -3 c-69 -3 -76 -5 -86 -27 l-12 -25
60 0 c33 0 60 -4 60 -8 0 -15 -146 -166 -179 -185 -17 -10 -31 -16 -31 -13 0
2 19 55 41 117 30 80 54 128 85 166 50 61 52 69 24 76 -15 4 -31 -9 -69 -57z
m115 -228 c-23 -61 -25 -63 -62 -66 l-38 -3 60 65 c32 35 60 65 61 65 1 1 -8
-27 -21 -61z m99 -47 c6 -19 2 -21 -30 -21 -26 0 -36 4 -33 13 3 6 13 37 24
67 l18 55 7 -47 c4 -25 10 -56 14 -67z"/>
<path d="M10786 5654 c-25 -69 -46 -128 -46 -130 0 -2 25 -4 56 -4 47 0 55 -3
50 -16 -3 -9 -6 -20 -6 -25 0 -5 -29 -9 -65 -9 -39 0 -65 -4 -65 -11 0 -5 -4
-8 -9 -5 -5 4 -21 2 -36 -4 -22 -8 -26 -8 -22 4 3 8 11 32 18 55 11 36 16 41
41 41 21 0 31 6 38 26 13 34 14 34 -16 34 -17 0 -24 5 -21 13 2 6 10 29 18 50
11 32 17 37 45 37 29 0 44 13 44 41 0 5 -40 9 -88 9 -85 0 -89 -1 -100 -25
-11 -24 -10 -25 22 -25 l34 0 -16 -50 c-15 -46 -18 -50 -48 -50 -27 0 -34 -5
-43 -30 -10 -29 -9 -30 20 -30 21 0 29 -4 26 -12 -3 -7 -13 -36 -23 -65 -16
-48 -20 -52 -61 -62 -36 -10 -43 -15 -43 -36 0 -14 3 -25 7 -25 27 0 193 55
193 64 0 7 22 10 64 8 l64 -4 -11 -29 c-11 -29 -12 -29 -93 -29 -76 0 -81 -1
-92 -25 l-12 -25 184 0 c158 0 185 2 190 16 12 31 5 34 -63 34 l-69 0 11 30
c11 28 14 29 75 32 57 3 66 6 73 26 8 21 7 22 -56 22 l-65 0 12 25 c10 22 17
25 69 25 l57 0 46 126 c25 69 46 128 46 130 0 2 -65 4 -144 4 l-144 0 -46
-126z m135 44 c-6 -16 -18 -24 -40 -26 -31 -3 -36 3 -25 32 4 10 18 16 40 16
30 0 33 -2 25 -22z m119 10 c0 -26 -18 -39 -47 -36 -27 3 -29 6 -22 26 6 16
16 22 39 22 17 0 30 -5 30 -12z m-154 -104 c-3 -9 -6 -20 -6 -25 0 -5 -16 -9
-35 -9 -38 0 -40 2 -25 31 14 25 76 28 66 3z m115 -6 c-6 -16 -18 -24 -40 -26
-31 -3 -36 3 -25 32 4 10 18 16 40 16 30 0 33 -2 25 -22z"/>
<path d="M10293 5753 c-91 -4 -91 -4 -102 -33 l-10 -30 87 6 87 6 -88 -56
c-103 -67 -117 -73 -179 -81 -31 -4 -48 -11 -48 -20 0 -7 -3 -20 -6 -28 -4
-11 0 -14 13 -11 10 2 51 8 91 12 l73 9 -25 -24 c-36 -33 -58 -79 -54 -115 4
-44 44 -70 114 -76 51 -4 59 -2 75 19 27 35 24 39 -26 39 -48 0 -94 17 -96 34
-9 80 74 135 202 136 74 0 77 1 83 26 4 15 6 27 4 28 -2 1 -52 -1 -113 -4 -60
-3 -111 -5 -113 -4 -3 1 164 107 196 123 18 10 20 15 12 31 -8 15 -20 19 -48
18 -20 -1 -78 -4 -129 -5z"/>
<path d="M13335 5627 c-56 -115 -117 -299 -104 -311 9 -9 59 7 59 18 0 7 23
45 50 85 42 61 48 76 38 88 -11 13 -15 11 -35 -13 -23 -28 -23 -28 -14 -4 18
48 60 136 95 196 19 34 32 65 29 68 -4 3 -17 6 -30 6 -21 0 -33 -17 -88 -133z"/>
<path d="M11911 5729 c-146 -28 -281 -168 -281 -290 0 -57 18 -79 64 -79 62 0
148 88 232 237 25 46 49 83 53 83 23 0 70 -43 76 -69 22 -99 -81 -211 -218
-236 -28 -6 -37 -11 -33 -22 3 -8 6 -21 6 -28 0 -16 62 -4 126 24 167 74 243
296 125 363 -35 20 -96 27 -150 17z m-17 -81 c-68 -132 -162 -240 -190 -217
-52 43 52 195 159 233 23 8 43 15 45 15 1 1 -5 -14 -14 -31z"/>
<path d="M9629 5701 c-5 -13 -7 -27 -3 -30 7 -7 290 -8 297 -1 3 3 8 16 12 30
l6 25 -152 0 c-150 0 -151 0 -160 -24z"/>
<path d="M13521 5679 l-10 -29 118 0 c117 0 118 0 129 25 7 14 12 28 12 30 0
2 -54 4 -119 4 l-120 -1 -10 -29z"/>
<path d="M8431 5500 l-10 -30 150 0 150 0 -70 -82 c-56 -66 -67 -84 -55 -91 8
-5 21 -7 28 -5 8 2 55 52 105 113 78 93 89 110 74 116 -10 4 -95 8 -190 8
l-171 1 -11 -30z"/>
<path d="M9520 5478 c-26 -43 -35 -91 -21 -116 18 -34 73 -45 195 -39 61 3
118 8 127 11 16 7 44 55 36 62 -2 2 -28 0 -57 -6 -67 -13 -181 -13 -214 0 -32
12 -34 40 -5 86 l21 34 -31 0 c-25 0 -36 -7 -51 -32z"/>
<path d="M13420 5460 c-46 -90 -18 -120 110 -120 108 0 127 6 138 39 l10 28
-104 -5 c-116 -5 -128 1 -100 56 14 27 14 31 0 36 -27 10 -33 7 -54 -34z"/>
<path d="M9010 5481 c0 -5 -3 -16 -6 -25 -5 -12 1 -16 24 -16 24 0 34 -7 51
-35 11 -19 17 -36 13 -39 -4 -2 -40 -9 -79 -16 -68 -11 -73 -14 -73 -37 0 -23
2 -24 48 -17 26 4 74 14 107 23 51 14 66 15 90 5 17 -7 53 -18 81 -25 48 -11
52 -10 77 13 l26 25 -61 11 c-68 13 -80 19 -56 33 41 23 118 91 113 99 -8 13
-355 13 -355 1z m240 -46 c0 -2 -17 -13 -39 -24 l-38 -20 -23 24 -23 25 61 0
c34 0 62 -2 62 -5z"/>
<path d="M13803 5465 c-60 -26 -93 -114 -57 -149 32 -33 100 -12 148 44 31 38
33 73 6 100 -23 23 -52 25 -97 5z m67 -65 c0 -17 -43 -60 -61 -60 -4 0 -14 7
-23 15 -12 12 -13 21 -4 39 21 47 88 52 88 6z"/>
<path d="M11068 5400 c-40 -50 -44 -61 -32 -71 17 -14 48 10 96 75 21 30 25
42 16 48 -23 14 -32 8 -80 -52z"/>
<path d="M11183 5443 c-3 -10 -12 -33 -19 -52 -32 -79 -19 -91 106 -91 87 0
116 12 144 59 19 33 19 34 0 48 -17 12 -20 12 -29 -3 -28 -48 -45 -56 -106
-52 -32 2 -61 7 -64 10 -3 3 2 21 10 41 8 20 15 41 15 47 0 18 -50 11 -57 -7z"/>
<path d="M8273 5263 c17 -4 107 -85 107 -96 0 -9 61 -67 70 -67 4 0 21 -7 36
-15 16 -8 37 -15 47 -15 18 0 97 -73 97 -90 0 -6 74 -10 201 -10 l202 0 -27
33 c-14 17 -35 50 -46 72 -11 22 -40 62 -65 88 -46 50 -54 67 -32 67 6 0 23 9
37 20 25 20 24 20 -310 19 -184 -1 -327 -3 -317 -6z m447 -39 c14 -36 13 -51
-2 -36 -19 19 -28 14 -28 -18 0 -37 -17 -39 -68 -6 -48 30 -64 50 -56 70 5 13
21 16 75 16 65 0 70 -2 79 -26z"/>
<path d="M9135 5237 c19 -26 26 -49 29 -99 6 -83 16 -140 29 -155 7 -10 83
-13 319 -13 l310 0 -6 23 c-3 12 -11 47 -18 77 -7 31 -23 68 -35 84 -13 16
-23 36 -23 45 1 13 3 12 16 -4 8 -11 20 -19 25 -17 6 1 8 -2 4 -8 -4 -6 6 -23
21 -38 15 -15 24 -20 19 -12 -7 12 -6 13 6 3 9 -7 27 -44 40 -83 l24 -70 2151
0 2151 0 -10 40 c-10 37 -9 42 17 69 l29 30 -32 30 c-27 25 -31 36 -31 80 l0
51 -2531 0 -2530 0 26 -33z"/>
<path d="M12042 4899 c-22 -8 -23 -13 -17 -52 4 -23 8 -43 10 -45 1 -1 14 2
28 7 24 9 25 12 16 53 -6 23 -11 43 -12 44 -1 1 -13 -2 -25 -7z"/>
<path d="M14703 4880 c-17 -10 -37 -28 -43 -39 -10 -20 -19 -21 -181 -21
l-169 0 -10 -26 c-6 -14 -10 -27 -10 -30 0 -2 72 -4 160 -4 88 0 160 -4 160
-9 0 -18 -88 -127 -131 -162 -66 -53 -106 -75 -185 -101 l-71 -24 13 -27 14
-26 56 19 c128 44 258 148 336 266 30 46 48 64 64 64 30 0 70 34 83 70 9 26 7
34 -9 50 -25 25 -37 25 -77 0z m45 -46 c-5 -25 -35 -41 -49 -27 -9 9 -9 16 1
28 17 21 52 20 48 -1z"/>
<path d="M8526 4844 l-17 -36 -60 4 c-57 4 -61 3 -70 -19 -5 -14 -9 -26 -9
-29 0 -2 27 -4 60 -4 l60 0 -20 -40 c-11 -22 -24 -40 -29 -40 -26 0 -131 -83
-159 -125 -61 -92 -31 -141 69 -112 41 12 47 12 42 0 -4 -11 1 -13 23 -7 46
11 48 10 52 -12 3 -20 6 -21 45 -12 130 29 220 116 220 212 0 33 -6 45 -32 67
-20 16 -28 29 -22 33 18 12 12 23 -14 28 -16 3 -29 -1 -37 -12 -8 -11 -32 -20
-60 -24 -45 -5 -47 -5 -39 17 7 19 19 23 110 33 55 6 103 13 105 15 2 2 7 14
10 27 9 26 8 26 -99 11 -42 -6 -80 -8 -83 -5 -3 4 4 20 17 36 l22 30 -34 0
c-28 0 -36 -5 -51 -36z m4 -229 c-30 -31 -56 -52 -58 -47 -1 4 4 26 11 47 14
39 33 52 82 54 15 1 6 -12 -35 -54z m128 33 c7 -7 12 -28 12 -47 0 -62 -106
-141 -189 -141 -37 0 -24 34 30 74 27 22 66 59 86 83 38 47 43 49 61 31z
m-233 -45 c-4 -10 -9 -33 -12 -52 -5 -26 -13 -36 -41 -48 -19 -8 -41 -12 -49
-9 -20 8 5 53 52 95 40 35 61 40 50 14z"/>
<path d="M9048 4838 l-23 -43 -67 -3 c-63 -3 -67 -4 -77 -32 l-10 -30 50 0
c27 0 49 -4 49 -9 0 -6 -40 -50 -88 -100 -87 -88 -88 -90 -65 -102 22 -12 28
-9 74 37 28 27 73 79 102 116 47 61 54 67 97 73 56 8 65 13 75 44 7 22 6 23
-36 16 l-42 -7 21 36 c12 21 22 39 22 42 0 2 -13 4 -29 4 -24 0 -34 -8 -53
-42z"/>
<path d="M9579 4833 l-24 -48 -60 1 c-60 0 -75 -7 -75 -38 0 -13 11 -18 51
-20 l51 -3 -59 -90 c-33 -49 -80 -115 -105 -146 l-46 -57 25 -11 c23 -11 28
-9 54 21 15 18 65 90 111 160 46 70 90 129 98 132 8 2 36 7 62 11 40 5 48 10
57 36 l10 30 -37 -6 c-20 -4 -46 -9 -56 -12 -18 -5 -18 -3 3 32 17 30 19 40 9
46 -28 18 -46 8 -69 -38z"/>
<path d="M11768 4839 c-33 -47 -134 -131 -205 -171 -54 -31 -54 -31 -35 -50
19 -20 20 -20 63 8 24 15 69 47 100 71 l56 44 84 -3 83 -3 -56 -60 -55 -60
-44 36 -44 36 -28 -20 -27 -21 41 -42 40 -41 -51 -33 c-43 -28 -111 -59 -183
-83 -16 -6 -17 -8 -2 -31 l16 -24 71 29 c38 16 96 46 128 67 l58 39 24 -23 23
-23 29 25 29 26 -21 21 -21 21 52 60 c56 65 112 138 112 146 0 3 3 10 7 16 9
13 -10 84 -22 84 -30 0 -40 -13 -34 -46 l6 -34 -78 0 -78 0 27 28 27 29 -32
10 c-31 9 -35 8 -60 -28z"/>
<path d="M10101 4825 l-20 -45 -64 0 c-59 0 -65 -2 -71 -22 -9 -36 -9 -37 45
-40 l51 -3 -52 -80 c-29 -44 -76 -110 -106 -147 l-53 -66 28 -10 c28 -10 31
-7 80 59 28 37 78 111 112 162 l60 94 59 7 c53 6 59 9 69 36 11 34 11 34 -57
21 l-42 -8 20 34 c27 46 25 53 -10 53 -25 0 -32 -6 -49 -45z"/>
<path d="M10397 4863 c-14 -4 -16 -11 -11 -41 8 -45 12 -52 27 -52 31 1 39 16
27 59 -6 22 -14 40 -18 40 -4 -1 -15 -3 -25 -6z"/>
<path d="M10518 4748 c-57 -123 -81 -196 -92 -275 -6 -42 -6 -43 23 -43 22 0
30 6 35 24 3 14 25 53 49 89 40 60 42 65 25 76 -10 6 -18 8 -18 4 0 -5 -9 -19
-20 -33 l-20 -25 14 40 c20 57 59 142 95 203 20 33 27 52 19 52 -7 0 -22 2
-33 5 -17 4 -28 -12 -77 -117z"/>
<path d="M10845 4858 c-2 -7 -10 -33 -18 -58 l-14 -45 -76 1 c-75 1 -76 1 -86
-27 -10 -29 -10 -29 32 -31 23 -1 57 -1 75 0 40 2 40 -6 4 -83 -37 -78 -70
-116 -126 -146 -48 -25 -55 -39 -31 -59 12 -10 23 -7 58 13 68 40 120 105 157
194 l33 81 49 6 c26 4 48 10 48 14 0 4 3 17 6 30 6 22 5 22 -35 16 -46 -7 -49
-2 -26 53 8 19 15 39 15 44 0 14 -60 10 -65 -3z"/>
<path d="M12485 4829 c-83 -66 -242 -138 -402 -185 -7 -2 -13 -15 -13 -30 0
-25 2 -26 38 -19 20 3 74 21 119 39 l81 34 -33 -93 c-19 -52 -41 -109 -49
-129 l-15 -36 35 0 c19 0 36 6 38 13 2 6 26 72 52 146 46 130 49 134 92 160
24 14 69 43 99 65 52 37 54 39 37 57 -9 10 -20 19 -23 18 -3 0 -28 -18 -56
-40z"/>
<path d="M13890 4856 c0 -16 -133 -384 -150 -417 -11 -19 -9 -20 26 -17 33 3
38 7 51 43 40 122 66 185 75 185 6 0 46 -18 90 -40 l80 -40 19 23 c10 12 18
27 19 33 0 11 -148 84 -169 84 -22 0 -21 22 4 83 14 35 25 67 25 70 0 4 -16 7
-35 7 -23 0 -35 -5 -35 -14z"/>
<path d="M10327 4838 c-14 -11 -15 -19 -6 -55 11 -40 12 -41 36 -30 22 10 24
15 18 46 -10 55 -18 61 -48 39z"/>
<path d="M14906 4828 c-3 -13 -6 -26 -6 -30 0 -5 72 -8 160 -8 l160 0 10 26
c6 14 10 27 10 30 0 2 -74 4 -164 4 -161 0 -164 0 -170 -22z"/>
<path d="M11251 4829 c-146 -28 -281 -168 -281 -290 0 -57 18 -79 64 -79 62 0
148 88 232 237 25 46 49 83 53 83 23 0 70 -43 76 -69 22 -99 -81 -211 -218
-236 -28 -6 -37 -11 -33 -22 3 -8 6 -21 6 -28 0 -16 62 -4 126 24 167 74 243
296 125 363 -35 20 -96 27 -150 17z m-17 -81 c-68 -132 -162 -240 -190 -217
-52 43 52 195 159 233 23 8 43 15 45 15 1 1 -5 -14 -14 -31z"/>
<path d="M15424 4822 l-21 -18 31 -35 c17 -19 40 -48 51 -63 l20 -27 32 24 32
24 -50 56 c-28 32 -56 57 -62 57 -7 -1 -22 -9 -33 -18z"/>
<path d="M16092 4820 c-106 -9 -194 -19 -196 -21 -2 -2 -6 -17 -10 -33 -7 -28
-6 -28 26 -23 18 3 60 9 93 12 33 3 73 9 88 12 26 4 24 1 -24 -44 -58 -54 -99
-130 -99 -184 0 -61 51 -109 132 -124 32 -6 38 -4 57 23 l21 31 -55 11 c-56
12 -95 44 -95 79 0 33 53 122 93 156 44 38 118 65 177 65 30 0 37 4 47 30 l11
30 -36 -1 c-21 -1 -124 -9 -230 -19z"/>
<path d="M12687 4793 c-2 -10 -8 -25 -11 -33 -5 -13 6 -15 79 -12 l85 3 -36
-98 c-20 -54 -39 -106 -41 -115 -5 -16 -19 -18 -107 -18 l-103 0 -10 -32 -10
-33 234 0 233 0 10 29 c5 16 10 31 10 32 0 2 -45 4 -101 4 -77 0 -100 3 -96
13 2 6 21 58 42 115 l38 103 87 -3 88 -3 10 33 10 32 -203 0 c-184 0 -203 -2
-208 -17z"/>
<path d="M9200 4775 c-13 -14 -19 -25 -13 -25 7 0 33 -16 59 -36 l47 -36 25
25 25 25 -49 36 c-27 19 -54 36 -60 36 -6 0 -21 -11 -34 -25z"/>
<path d="M13373 4750 c-21 -8 -23 -16 -23 -75 0 -36 2 -65 4 -65 3 0 16 4 30
10 24 9 26 14 26 75 0 68 -1 69 -37 55z"/>
<path d="M15708 4695 c-108 -102 -260 -180 -411 -210 -26 -5 -28 -9 -22 -33 4
-15 8 -28 10 -30 8 -8 136 34 212 68 103 48 163 88 236 159 53 51 72 91 50
104 -5 3 -38 -24 -75 -58z"/>
<path d="M13520 4702 c-53 -100 -168 -198 -280 -239 -60 -23 -66 -30 -45 -57
14 -18 17 -17 98 23 98 49 188 126 251 215 60 86 59 83 28 94 -27 9 -30 7 -52
-36z"/>
<path d="M16269 4743 c-13 -3 -14 -11 -5 -52 9 -46 11 -48 33 -38 25 11 29 31
13 71 -10 26 -12 27 -41 19z"/>
<path d="M13236 4721 c-17 -7 -19 -16 -17 -72 1 -35 4 -65 6 -67 1 -2 14 0 29
4 25 6 26 9 26 75 0 72 -3 76 -44 60z"/>
<path d="M14810 4696 c-5 -16 -10 -29 -10 -30 0 -1 77 0 171 2 l171 3 -27 -36
c-51 -66 -151 -130 -245 -156 -58 -16 -64 -22 -51 -48 9 -17 18 -20 39 -15 51
12 187 82 230 120 55 47 145 165 134 176 -4 4 -97 9 -205 11 l-197 2 -10 -29z"/>
<path d="M16208 4723 c-18 -5 -21 -26 -9 -74 5 -23 9 -25 29 -18 12 5 22 15
22 22 0 27 -12 77 -19 76 -3 -1 -14 -3 -23 -6z"/>
<path d="M9131 4687 c-5 -13 -15 -42 -22 -65 -12 -40 -14 -42 -52 -42 -58 0
-125 -35 -144 -75 -23 -49 -11 -82 35 -94 68 -18 150 17 168 72 6 18 8 17 38
-12 l32 -31 25 26 24 26 -44 39 -44 39 25 70 25 70 -29 0 c-21 0 -31 -6 -37
-23z m-56 -167 c11 -18 -42 -60 -75 -60 -41 0 -51 27 -21 52 25 19 86 25 96 8z"/>
<path d="M9630 4684 c-6 -14 -10 -26 -10 -27 0 -1 47 -2 105 -2 l105 0 9 27
10 28 -105 0 c-103 0 -105 0 -114 -26z"/>
<path d="M10192 4703 c-24 -3 -36 -11 -43 -29 -5 -14 -9 -26 -9 -27 0 -1 47
-2 105 -2 104 0 105 0 114 26 9 25 7 27 -27 33 -38 6 -84 6 -140 -1z"/>
<path d="M9541 4529 c-20 -46 -21 -53 -7 -73 21 -33 97 -45 187 -30 27 5 38
13 46 34 l10 28 -81 -5 c-68 -5 -84 -3 -95 11 -12 15 -12 22 2 51 l17 35 -29
0 c-25 0 -31 -7 -50 -51z"/>
<path d="M10066 4532 c-10 -22 -16 -52 -14 -68 4 -41 58 -58 154 -49 66 7 71
9 81 36 l11 29 -76 -6 c-60 -4 -81 -3 -97 9 -19 15 -19 16 -2 51 l17 36 -29 0
c-23 0 -31 -7 -45 -38z"/>
<path d="M4452 5585 c-11 -12 -10 -15 3 -15 8 0 15 7 15 15 0 18 -2 18 -18 0z"/>
<path d="M4495 5550 c-19 -8 -19 -9 3 -9 12 -1 22 4 22 9 0 6 -1 10 -2 9 -2 0
-12 -4 -23 -9z"/>
<path d="M4533 5525 c0 -8 5 -16 12 -18 6 -3 11 4 11 14 0 11 -5 19 -11 19 -7
0 -12 -7 -12 -15z"/>
<path d="M4575 5480 c3 -5 8 -10 11 -10 2 0 4 5 4 10 0 6 -5 10 -11 10 -5 0
-7 -4 -4 -10z"/>
<path d="M4990 5220 c0 -5 7 -10 16 -10 8 0 12 5 9 10 -3 6 -10 10 -16 10 -5
0 -9 -4 -9 -10z"/>
<path d="M4941 4851 c-37 -15 -41 -19 -22 -24 28 -7 101 3 101 14 0 5 12 9 28
10 24 0 25 1 7 9 -30 13 -65 10 -114 -9z"/>
<path d="M4847 4825 c-21 -6 -35 -14 -31 -18 4 -4 -8 -7 -27 -7 -45 0 -86 -27
-168 -109 -82 -83 -93 -111 -55 -146 27 -25 70 -32 159 -27 l30 2 -25 -22 -25
-21 29 6 c40 7 72 -10 87 -45 13 -33 34 -32 33 1 0 12 4 20 10 18 23 -8 47 14
46 41 -4 55 -4 54 63 47 72 -8 82 -12 68 -29 -6 -7 -8 -15 -5 -19 3 -3 1 -15
-6 -26 -9 -18 -8 -21 9 -21 23 0 49 34 53 70 3 22 -1 25 -24 22 -44 -4 -32 17
13 24 28 5 45 14 57 33 9 14 21 29 27 34 6 4 1 10 -12 13 -13 4 -23 9 -23 13
0 3 -7 14 -14 24 -12 16 -17 17 -38 5 -12 -7 -30 -19 -39 -26 -9 -6 -53 -17
-99 -23 -88 -11 -133 -25 -180 -59 l-29 -21 -11 21 c-29 53 51 166 144 204 34
14 53 25 44 26 -9 0 -18 6 -20 13 -2 10 -11 11 -41 2z m88 -224 c-10 -9 -145
-22 -145 -15 0 3 10 9 23 14 29 12 134 13 122 1z"/>
<path d="M4955 4430 c-3 -5 1 -10 10 -10 9 0 13 5 10 10 -3 6 -8 10 -10 10 -2
0 -7 -4 -10 -10z"/>
<path d="M6230 4709 c0 -5 5 -7 10 -4 6 3 10 8 10 11 0 2 -4 4 -10 4 -5 0 -10
-5 -10 -11z"/>
<path d="M8474 4015 c-20 -25 -44 -45 -54 -45 -10 0 -23 -7 -30 -15 -11 -13
-9 -23 6 -56 l18 -41 -25 -19 c-13 -10 -33 -19 -44 -21 -12 -2 -21 -12 -23
-25 -3 -21 1 -23 38 -23 25 0 39 -4 35 -10 -3 -5 -19 -10 -34 -10 -22 0 -31
-7 -41 -30 -7 -17 -25 -48 -40 -69 -27 -36 -27 -38 -9 -49 17 -11 23 -6 57 47
20 32 42 67 49 77 7 11 -3 -25 -22 -79 l-35 -98 27 3 c23 3 30 12 55 83 16 44
32 82 35 85 3 3 3 -16 1 -42 -3 -27 -4 -48 -2 -48 1 0 14 4 28 10 23 8 26 15
26 59 l0 50 34 -6 c32 -5 34 -3 46 31 l12 36 100 0 c108 0 105 2 83 -53 -7
-16 -4 -18 20 -15 22 2 30 12 46 53 10 28 19 53 19 58 0 4 -67 7 -150 7 -93 0
-150 -4 -150 -10 0 -5 -4 -10 -10 -10 -5 0 -10 12 -10 26 0 21 -4 25 -17 20
-10 -4 1 12 24 36 42 43 42 43 107 40 51 -3 64 -7 59 -18 -3 -10 -22 -14 -58
-14 -51 0 -65 -9 -65 -41 0 -5 58 -9 130 -9 118 0 130 2 140 19 15 30 14 31
-40 31 -38 0 -50 4 -50 15 0 12 14 15 65 15 59 0 67 2 74 23 8 21 6 22 -51 25
-58 3 -60 4 -54 28 6 21 3 24 -23 24 -22 0 -30 -5 -35 -25 -6 -23 -10 -25 -70
-25 -48 0 -65 -4 -70 -15 -5 -13 -10 -14 -26 -5 -19 10 -26 6 -62 -34 -22 -26
-44 -43 -49 -40 -5 3 14 33 42 66 42 47 50 62 38 69 -22 14 -25 12 -65 -36z
m6 -170 c0 -9 -9 -15 -21 -15 -18 0 -19 2 -9 15 7 8 16 15 21 15 5 0 9 -7 9
-15z m0 -79 c0 -7 -8 -16 -19 -19 -14 -3 -17 0 -14 14 6 22 33 26 33 5z"/>
<path d="M10150 3992 l-15 -47 -58 -3 c-51 -3 -59 -6 -67 -28 -13 -34 -12 -44
3 -40 6 3 31 7 55 10 l43 6 -15 -28 c-8 -16 -32 -44 -53 -62 -135 -117 -135
-118 -126 -146 l9 -26 57 52 c31 29 57 50 57 47 0 -3 -13 -40 -29 -81 l-29
-76 31 0 c32 0 32 1 71 116 l39 115 56 38 c92 60 146 77 157 47 3 -8 -14 -51
-37 -97 -56 -112 -68 -149 -58 -176 7 -18 16 -23 44 -23 67 0 135 51 135 101
0 5 -22 -3 -49 -19 -75 -41 -82 -24 -33 74 21 44 47 101 57 128 l19 49 -24 19
c-33 27 -85 18 -170 -29 -59 -32 -63 -33 -41 -10 13 14 21 32 18 40 -3 8 5 33
18 56 l24 41 -37 0 c-35 0 -38 -2 -52 -48z"/>
<path d="M13479 4000 l-12 -40 -88 0 -87 0 -11 -30 -10 -30 141 0 142 0 -35
-26 c-53 -40 -207 -111 -281 -131 -68 -17 -80 -29 -60 -61 7 -10 30 -5 105 21
111 39 106 44 61 -67 -13 -33 -24 -61 -24 -63 0 -2 15 -3 33 -3 31 0 33 3 55
70 42 127 47 135 119 183 156 105 171 137 63 137 -65 0 -69 4 -45 50 l16 30
-35 0 c-32 0 -36 -3 -47 -40z"/>
<path d="M8958 3908 c-57 -123 -81 -196 -92 -275 -6 -42 -6 -43 23 -43 22 0
30 6 35 24 3 14 25 53 49 89 40 60 42 65 25 76 -10 6 -18 8 -18 4 0 -5 -9 -19
-20 -33 l-20 -25 14 40 c20 57 59 142 95 203 20 33 27 52 19 52 -7 0 -22 2
-33 5 -17 4 -28 -12 -77 -117z"/>
<path d="M9285 4018 c-2 -7 -10 -33 -18 -58 l-14 -45 -76 1 c-75 1 -76 1 -86
-27 -10 -29 -10 -29 32 -31 23 -1 57 -1 75 0 40 2 40 -6 4 -83 -37 -78 -70
-116 -126 -146 -48 -25 -55 -39 -31 -59 12 -10 23 -7 58 13 68 40 120 105 157
194 l33 81 49 6 c26 4 48 10 48 14 0 4 3 17 6 30 6 22 5 22 -35 16 -46 -7 -49
-2 -26 53 8 19 15 39 15 44 0 14 -60 10 -65 -3z"/>
<path d="M9634 4006 c-9 -15 -15 -28 -13 -30 2 -2 49 -14 103 -25 104 -23 101
-23 126 20 8 14 -3 18 -73 32 -45 10 -92 20 -104 23 -16 4 -26 -1 -39 -20z"/>
<path d="M12870 4016 c0 -16 -133 -384 -150 -417 -11 -19 -9 -20 26 -17 33 3
38 7 51 43 40 122 66 185 75 185 6 0 46 -18 90 -40 l80 -40 19 23 c10 12 18
27 19 33 0 11 -148 84 -169 84 -22 0 -21 22 4 83 14 35 25 67 25 70 0 4 -16 7
-35 7 -23 0 -35 -5 -35 -14z"/>
<path d="M10930 4016 c-3 -2 -63 -7 -135 -9 -114 -4 -130 -7 -136 -23 -14 -36
-10 -39 49 -36 125 7 126 3 22 -63 -240 -150 -230 -143 -218 -169 l10 -24 47
33 c103 74 227 99 271 55 30 -30 24 -58 -22 -104 l-43 -41 -3 32 c-4 40 -34
63 -82 63 -69 0 -138 -68 -119 -117 13 -35 45 -46 119 -41 89 7 163 46 202
107 39 62 38 111 -3 145 -29 25 -52 30 -109 27 -23 -2 24 33 157 115 14 9 15
16 8 33 -6 12 -13 20 -15 17z m-222 -368 c3 -24 0 -28 -22 -28 -37 0 -56 10
-56 29 0 26 11 32 45 29 24 -2 31 -8 33 -30z"/>
<path d="M11141 3959 c-6 -18 -11 -32 -11 -33 0 -1 74 0 165 2 l165 3 -30 -50
c-62 -101 -223 -217 -326 -237 -36 -7 -42 -19 -21 -47 11 -16 16 -16 53 -3
159 56 291 167 379 319 43 75 38 77 -180 77 l-183 0 -11 -31z"/>
<path d="M13857 3973 c-2 -10 -8 -25 -11 -33 -5 -13 11 -15 125 -11 125 3 130
2 121 -15 -35 -63 -219 -203 -335 -254 -72 -31 -75 -34 -65 -56 6 -13 15 -24
20 -24 16 0 142 68 203 110 l60 40 19 -22 c10 -13 29 -45 43 -73 14 -27 27
-51 28 -53 4 -5 65 27 65 34 0 9 -42 88 -68 127 l-25 38 49 52 c105 111 115
123 108 140 -5 15 -26 17 -169 17 -146 0 -163 -2 -168 -17z"/>
<path d="M9506 3824 c-31 -64 -56 -118 -56 -119 0 -1 9 -5 20 -8 14 -3 30 3
48 20 68 63 201 95 242 58 24 -22 19 -48 -18 -88 -35 -37 -116 -60 -197 -55
l-65 3 0 -32 0 -33 58 0 c126 0 236 49 279 125 31 54 30 95 -3 126 -40 38
-134 32 -248 -16 -16 -7 -13 3 16 58 36 67 35 77 -7 77 -7 0 -38 -52 -69 -116z"/>
<path d="M11931 3904 c-59 -46 -200 -116 -283 -140 -63 -17 -68 -21 -68 -46 0
-16 1 -28 3 -28 8 0 99 31 135 45 24 10 45 15 48 13 2 -3 -11 -47 -31 -97 -19
-51 -35 -95 -35 -97 0 -2 15 -4 33 -4 31 0 33 3 54 68 52 164 58 174 120 210
91 52 106 67 93 92 -14 26 -17 25 -69 -16z"/>
<path d="M12353 3910 c-21 -8 -23 -16 -23 -75 0 -36 2 -65 4 -65 3 0 16 4 30
10 24 9 26 14 26 75 0 68 -1 69 -37 55z"/>
<path d="M12500 3862 c-53 -100 -168 -198 -280 -239 -60 -23 -66 -30 -45 -57
14 -18 17 -17 98 23 98 49 188 126 251 215 60 86 59 83 28 94 -27 9 -30 7 -52
-36z"/>
<path d="M12216 3881 c-17 -7 -19 -16 -17 -72 1 -35 4 -65 6 -67 1 -2 14 0 29
4 25 6 26 9 26 75 0 72 -3 76 -44 60z"/>
<path d="M13497 3772 c-16 -17 -14 -21 36 -64 l53 -46 27 24 c15 13 27 25 27
26 0 9 -99 78 -112 78 -8 0 -22 -8 -31 -18z"/>
<path d="M8564 3722 c-28 -53 -48 -71 -137 -127 -14 -9 -14 -13 -3 -28 14 -18
16 -18 53 2 49 25 115 94 142 148 27 53 26 63 -1 63 -18 0 -30 -14 -54 -58z"/>
<path d="M8681 3758 c-5 -13 -21 -58 -37 -102 -27 -76 -27 -79 -9 -92 43 -32
106 -10 135 47 21 39 21 41 3 54 -16 12 -20 10 -36 -21 -11 -21 -25 -34 -37
-34 -18 0 -18 4 10 81 17 44 30 82 30 85 0 2 -11 4 -25 4 -17 0 -28 -7 -34
-22z"/>
<path d="M14273 3725 c-60 -26 -93 -114 -57 -149 32 -33 100 -12 148 44 31 38
33 73 6 100 -23 23 -52 25 -97 5z m67 -65 c0 -17 -43 -60 -61 -60 -4 0 -14 7
-23 15 -12 12 -13 21 -4 39 21 47 88 52 88 6z"/>
<path d="M8332 3508 c8 -13 32 -53 52 -90 21 -38 40 -68 42 -68 2 0 4 41 4 90
l0 90 -56 0 c-56 0 -56 0 -42 -22z"/>
<path d="M9770 3528 c1 -9 58 -179 61 -183 3 -2 19 38 36 90 l31 95 -64 0
c-35 0 -64 -1 -64 -2z"/>
<path d="M10150 3480 c0 -50 0 -50 33 -50 40 0 57 15 57 50 0 35 -17 50 -57
50 -33 0 -33 0 -33 -50z"/>
<path d="M11302 3508 c8 -13 32 -53 52 -90 21 -38 40 -68 42 -68 2 0 4 41 4
90 l0 90 -56 0 c-56 0 -56 0 -42 -22z"/>
<path d="M9467 3510 c-3 -8 -12 -36 -21 -62 l-15 -48 40 0 c21 0 39 1 39 3 -2
23 -40 118 -43 107z"/>
<path d="M10447 3467 c-9 -30 -17 -57 -17 -60 0 -4 18 -7 39 -7 l40 0 -21 60
c-11 33 -21 60 -22 60 -1 0 -10 -24 -19 -53z"/>
<path d="M7507 3533 c-4 -3 -7 -28 -7 -55 l0 -48 34 0 c35 0 66 27 66 57 0 34
-71 69 -93 46z"/>
<path d="M7794 3526 c-3 -8 -4 -31 -2 -52 3 -38 4 -39 38 -36 34 2 60 23 60
49 0 38 -83 72 -96 39z"/>
<path d="M5682 2139 l-24 -29 58 0 57 0 -29 30 c-16 16 -31 29 -34 29 -3 0
-15 -13 -28 -30z"/>
<path d="M12693 2103 c9 -2 25 -2 35 0 9 3 1 5 -18 5 -19 0 -27 -2 -17 -5z"/>
<path d="M12778 2103 c12 -2 30 -2 40 0 9 3 -1 5 -23 4 -22 0 -30 -2 -17 -4z"/>
<path d="M12680 2070 c0 -5 14 -10 30 -10 17 0 30 5 30 10 0 6 -13 10 -30 10
-16 0 -30 -4 -30 -10z"/>
<path d="M12760 2070 c0 -5 16 -10 35 -10 19 0 35 5 35 10 0 6 -16 10 -35 10
-19 0 -35 -4 -35 -10z"/>
<path d="M9240 2130 c0 -18 7 -20 60 -20 53 0 60 2 60 20 0 18 -7 20 -60 20
-53 0 -60 -2 -60 -20z"/>
<path d="M9240 2065 c0 -24 3 -25 60 -25 57 0 60 1 60 25 0 24 -3 25 -60 25
-57 0 -60 -1 -60 -25z"/>
<path d="M12950 2125 c0 -22 4 -25 35 -25 31 0 35 3 35 25 0 22 -4 25 -35 25
-31 0 -35 -3 -35 -25z"/>
<path d="M13040 2125 c0 -22 4 -25 35 -25 31 0 35 3 35 25 0 22 -4 25 -35 25
-31 0 -35 -3 -35 -25z"/>
<path d="M12950 2060 c0 -16 7 -20 35 -20 28 0 35 4 35 20 0 16 -7 20 -35 20
-28 0 -35 -4 -35 -20z"/>
<path d="M13040 2060 c0 -16 7 -20 35 -20 28 0 35 4 35 20 0 16 -7 20 -35 20
-28 0 -35 -4 -35 -20z"/>
<path d="M5945 2118 c-51 -27 -72 -92 -39 -119 14 -11 18 -10 30 6 17 23 37
91 32 110 -2 11 -8 11 -23 3z"/>
<path d="M9525 2118 c-51 -27 -72 -92 -39 -119 14 -11 18 -10 30 6 17 23 37
91 32 110 -2 11 -8 11 -23 3z"/>
<path d="M13220 2055 l0 -65 75 0 75 0 0 65 0 65 -75 0 -75 0 0 -65z"/>
<path d="M15440 1925 l0 -35 95 0 95 0 0 35 0 35 -95 0 -95 0 0 -35z"/>
<path d="M15440 1815 l0 -35 95 0 95 0 0 35 0 35 -95 0 -95 0 0 -35z"/>
<path d="M15440 1705 l0 -35 95 0 95 0 0 35 0 35 -95 0 -95 0 0 -35z"/>
<path d="M6747 1994 c-17 -16 -30 -46 -38 -82 -14 -67 -7 -218 11 -253 47 -91
113 -91 160 0 18 35 25 186 11 253 -14 66 -49 108 -91 108 -16 0 -38 -11 -53
-26z"/>
<path d="M10577 1994 c-17 -16 -30 -46 -38 -82 -14 -67 -7 -218 11 -253 47
-91 113 -91 160 0 18 35 25 186 11 253 -14 66 -49 108 -91 108 -16 0 -38 -11
-53 -26z"/>
<path d="M4090 1886 c0 -26 28 -36 106 -36 32 0 44 4 44 15 0 12 -13 15 -60
15 -45 0 -62 4 -66 15 -9 23 -24 18 -24 -9z"/>
<path d="M4410 1915 c0 -18 5 -25 20 -25 15 0 20 7 20 25 0 18 -5 25 -20 25
-15 0 -20 -7 -20 -25z"/>
<path d="M4480 1915 c0 -18 5 -25 20 -25 15 0 20 7 20 25 0 18 -5 25 -20 25
-15 0 -20 -7 -20 -25z"/>
<path d="M4560 1915 c0 -18 5 -25 20 -25 15 0 20 7 20 25 0 18 -5 25 -20 25
-15 0 -20 -7 -20 -25z"/>
<path d="M4410 1835 c0 -18 5 -25 20 -25 15 0 20 7 20 25 0 18 -5 25 -20 25
-15 0 -20 -7 -20 -25z"/>
<path d="M4480 1835 c0 -18 5 -25 20 -25 15 0 20 7 20 25 0 18 -5 25 -20 25
-15 0 -20 -7 -20 -25z"/>
<path d="M4560 1835 c0 -18 5 -25 20 -25 15 0 20 7 20 25 0 18 -5 25 -20 25
-15 0 -20 -7 -20 -25z"/>
<path d="M7940 1886 c0 -26 28 -36 106 -36 32 0 44 4 44 15 0 12 -13 15 -60
15 -45 0 -62 4 -66 15 -9 23 -24 18 -24 -9z"/>
<path d="M8260 1915 c0 -18 5 -25 20 -25 15 0 20 7 20 25 0 18 -5 25 -20 25
-15 0 -20 -7 -20 -25z"/>
<path d="M8330 1915 c0 -18 5 -25 20 -25 15 0 20 7 20 25 0 18 -5 25 -20 25
-15 0 -20 -7 -20 -25z"/>
<path d="M8410 1915 c0 -18 5 -25 20 -25 15 0 20 7 20 25 0 18 -5 25 -20 25
-15 0 -20 -7 -20 -25z"/>
<path d="M8260 1835 c0 -18 5 -25 20 -25 15 0 20 7 20 25 0 18 -5 25 -20 25
-15 0 -20 -7 -20 -25z"/>
<path d="M8330 1835 c0 -18 5 -25 20 -25 15 0 20 7 20 25 0 18 -5 25 -20 25
-15 0 -20 -7 -20 -25z"/>
<path d="M8410 1835 c0 -18 5 -25 20 -25 15 0 20 7 20 25 0 18 -5 25 -20 25
-15 0 -20 -7 -20 -25z"/>
<path d="M11670 1886 c0 -26 28 -36 106 -36 32 0 44 4 44 15 0 12 -13 15 -60
15 -45 0 -62 4 -66 15 -9 23 -24 18 -24 -9z"/>
<path d="M11990 1915 c0 -18 5 -25 20 -25 15 0 20 7 20 25 0 18 -5 25 -20 25
-15 0 -20 -7 -20 -25z"/>
<path d="M12060 1915 c0 -18 5 -25 20 -25 15 0 20 7 20 25 0 18 -5 25 -20 25
-15 0 -20 -7 -20 -25z"/>
<path d="M12140 1915 c0 -18 5 -25 20 -25 15 0 20 7 20 25 0 18 -5 25 -20 25
-15 0 -20 -7 -20 -25z"/>
<path d="M11990 1835 c0 -18 5 -25 20 -25 15 0 20 7 20 25 0 18 -5 25 -20 25
-15 0 -20 -7 -20 -25z"/>
<path d="M12060 1835 c0 -18 5 -25 20 -25 15 0 20 7 20 25 0 18 -5 25 -20 25
-15 0 -20 -7 -20 -25z"/>
<path d="M12140 1835 c0 -18 5 -25 20 -25 15 0 20 7 20 25 0 18 -5 25 -20 25
-15 0 -20 -7 -20 -25z"/>
<path d="M15167 1916 c-6 -16 51 -59 65 -50 5 3 15 18 23 35 l16 29 -50 0
c-33 0 -51 -5 -54 -14z"/>
<path d="M15186 1759 l-39 -29 84 0 83 0 -34 30 c-19 16 -39 29 -45 29 -5 0
-28 -14 -49 -30z"/>
<path d="M15150 1635 l0 -55 60 0 60 0 0 55 0 55 -60 0 -60 0 0 -55z"/>
<path d="M12960 1710 c0 -5 9 -10 20 -10 11 0 20 5 20 10 0 6 -9 10 -20 10
-11 0 -20 -4 -20 -10z"/>
<path d="M13050 1680 c0 -5 16 -10 35 -10 19 0 35 5 35 10 0 6 -16 10 -35 10
-19 0 -35 -4 -35 -10z"/>
<path d="M12948 1668 c9 -9 15 -9 24 0 9 9 7 12 -12 12 -19 0 -21 -3 -12 -12z"/>
<path d="M13050 1640 c0 -5 16 -10 35 -10 19 0 35 5 35 10 0 6 -16 10 -35 10
-19 0 -35 -4 -35 -10z"/>
<path d="M12950 1620 c-12 -8 -9 -10 13 -10 16 0 26 4 22 10 -8 12 -16 12 -35
0z"/>
<path d="M13050 1600 c0 -5 16 -10 35 -10 19 0 35 5 35 10 0 6 -16 10 -35 10
-19 0 -35 -4 -35 -10z"/>
<path d="M12940 1570 c0 -13 7 -20 20 -20 13 0 20 7 20 20 0 13 -7 20 -20 20
-13 0 -20 -7 -20 -20z"/>
<path d="M9220 1705 c0 -22 4 -25 35 -25 31 0 35 3 35 25 0 22 -4 25 -35 25
-31 0 -35 -3 -35 -25z"/>
<path d="M9310 1705 c0 -22 4 -25 35 -25 31 0 35 3 35 25 0 22 -4 25 -35 25
-31 0 -35 -3 -35 -25z"/>
<path d="M9220 1640 c0 -16 7 -20 35 -20 28 0 35 4 35 20 0 16 -7 20 -35 20
-28 0 -35 -4 -35 -20z"/>
<path d="M9310 1640 c0 -16 7 -20 35 -20 28 0 35 4 35 20 0 16 -7 20 -35 20
-28 0 -35 -4 -35 -20z"/>
<path d="M12700 1710 c0 -18 7 -20 60 -20 53 0 60 2 60 20 0 18 -7 20 -60 20
-53 0 -60 -2 -60 -20z"/>
<path d="M12700 1645 c0 -24 3 -25 60 -25 57 0 60 1 60 25 0 24 -3 25 -60 25
-57 0 -60 -1 -60 -25z"/>
<path d="M13490 1705 c0 -22 4 -25 35 -25 31 0 35 3 35 25 0 22 -4 25 -35 25
-31 0 -35 -3 -35 -25z"/>
<path d="M13580 1705 c0 -22 4 -25 35 -25 31 0 35 3 35 25 0 22 -4 25 -35 25
-31 0 -35 -3 -35 -25z"/>
<path d="M13490 1640 c0 -16 7 -20 35 -20 28 0 35 4 35 20 0 16 -7 20 -35 20
-28 0 -35 -4 -35 -20z"/>
<path d="M13580 1640 c0 -16 7 -20 35 -20 28 0 35 4 35 20 0 16 -7 20 -35 20
-28 0 -35 -4 -35 -20z"/>
<path d="M5248 1655 l-28 -45 30 0 c29 0 30 2 30 45 0 25 -1 45 -3 45 -1 0
-14 -20 -29 -45z"/>
<path d="M5462 1708 c-28 -28 -3 -84 34 -76 28 5 40 33 26 62 -12 28 -40 34
-60 14z"/>
<path d="M5617 1714 c-27 -27 20 -77 49 -53 23 19 13 53 -16 57 -14 2 -29 0
-33 -4z"/>
<path d="M5614 1619 c-14 -15 -16 -24 -8 -37 14 -21 50 -27 70 -12 22 19 17
38 -15 54 -26 14 -30 14 -47 -5z"/>
<path d="M5770 1701 c-23 -45 -6 -141 25 -141 21 0 35 33 35 80 0 47 -14 80
-35 80 -8 0 -19 -9 -25 -19z"/>
<path d="M8830 810 l0 -40 -50 0 c-38 0 -50 -4 -50 -15 0 -11 11 -15 41 -15
37 0 40 -2 33 -22 -9 -30 -47 -90 -68 -107 -15 -12 -16 -6 -16 70 1 54 6 93
15 109 20 35 18 50 -5 50 -11 0 -20 -6 -20 -13 0 -7 -16 -39 -35 -72 -23 -37
-33 -65 -29 -77 4 -15 9 -17 20 -7 12 10 14 -2 14 -75 0 -79 2 -86 20 -86 16
0 20 7 20 36 0 30 2 34 14 25 11 -10 17 -8 25 6 6 10 11 12 11 6 0 -8 13 -13
30 -13 27 0 30 -3 30 -30 0 -23 4 -30 20 -30 16 0 20 7 20 30 0 27 3 30 30 30
17 0 30 5 30 11 0 8 5 7 15 -1 12 -10 19 -10 27 -2 8 8 2 22 -21 50 -17 22
-38 56 -46 76 l-15 36 45 0 c33 0 45 4 45 15 0 12 -13 15 -55 15 l-55 0 0 40
c0 33 -3 40 -20 40 -17 0 -20 -7 -20 -40z m80 -192 c0 -5 -9 -8 -20 -8 -17 0
-20 7 -20 43 l1 42 19 -35 c11 -19 19 -38 20 -42z m-80 27 c0 -28 -4 -35 -20
-35 -19 0 -19 1 -3 35 9 19 18 35 20 35 2 0 3 -16 3 -35z"/>
<path d="M9236 832 c-8 -23 -66 -80 -66 -64 0 7 -9 12 -20 12 -11 0 -20 5 -20
10 0 6 11 10 25 10 16 0 25 6 25 15 0 12 -14 15 -70 15 l-70 0 0 -95 0 -95 53
-1 c47 -1 49 -2 22 -10 -16 -5 -42 -7 -56 -5 -25 5 -27 2 -32 -42 -6 -54 -1
-65 18 -39 9 12 14 14 17 6 6 -19 28 -1 29 24 1 20 2 20 9 -3 l7 -25 10 24 c8
21 10 22 16 7 9 -23 1 -36 -23 -36 -13 0 -17 -5 -14 -15 4 -10 20 -14 54 -14
40 1 55 7 79 31 17 17 31 35 31 42 0 6 9 -3 20 -21 25 -41 56 -59 76 -42 12
10 10 15 -15 30 -16 10 -35 27 -41 38 -10 19 -8 21 20 21 29 0 30 1 30 50 l0
50 -37 1 c-24 1 -29 3 -15 6 12 2 22 8 22 13 0 5 7 7 16 3 38 -14 28 20 -19
67 -53 53 -72 61 -81 32z m-136 -42 c0 -5 -7 -10 -15 -10 -8 0 -15 5 -15 10 0
6 7 10 15 10 8 0 15 -4 15 -10z m185 -10 c18 -20 17 -20 -19 -20 -34 0 -35 1
-24 20 7 11 16 20 19 20 3 0 14 -9 24 -20z m-185 -45 c0 -8 -7 -15 -15 -15 -8
0 -15 7 -15 15 0 8 7 15 15 15 8 0 15 -7 15 -15z m66 0 c4 -8 9 -13 13 -10 4
2 21 0 37 -5 l29 -8 -32 -1 c-26 -1 -33 -5 -33 -21 0 -15 -7 -20 -25 -20 -14
0 -25 5 -25 10 0 6 9 10 20 10 11 0 20 7 20 15 0 8 -9 15 -20 15 -11 0 -20 7
-20 15 0 19 29 20 36 0z m-66 -55 c0 -5 -7 -10 -15 -10 -8 0 -15 5 -15 10 0 6
7 10 15 10 8 0 15 -4 15 -10z m140 -25 c0 -8 -7 -15 -15 -15 -8 0 -15 7 -15
15 0 8 7 15 15 15 8 0 15 -7 15 -15z m70 0 c0 -8 -7 -15 -15 -15 -8 0 -15 7
-15 15 0 8 7 15 15 15 8 0 15 -7 15 -15z m-80 -53 c0 -5 -13 -21 -30 -37 -28
-27 -30 -27 -30 -8 0 37 11 53 36 53 13 0 24 -4 24 -8z"/>
<path d="M9819 827 c-6 -12 -21 -30 -33 -39 l-21 -17 24 -25 c25 -26 23 -56
-4 -56 -8 0 -15 -9 -15 -20 0 -16 7 -20 30 -20 l30 0 0 -70 c0 -56 3 -70 15
-70 12 0 15 14 16 63 l1 62 15 -37 c9 -21 22 -38 29 -38 17 0 18 24 3 51 -7
15 -7 24 1 35 7 7 10 20 7 28 -3 8 6 29 21 46 23 26 33 30 74 30 l48 0 -1 -72
c-1 -40 -4 -86 -8 -103 -6 -28 -10 -30 -45 -28 -31 2 -37 0 -32 -13 3 -9 6
-18 6 -20 0 -7 75 -4 87 4 15 9 33 118 33 200 l0 62 -65 0 -65 0 12 26 c10 21
9 27 -3 35 -21 13 -29 11 -29 -7 0 -30 -51 -112 -68 -110 -10 1 -16 -6 -16
-16 1 -10 -5 -18 -13 -18 -16 0 -12 8 34 75 17 25 16 32 -2 39 -11 4 -21 -5
-32 -29 -10 -22 -19 -31 -24 -24 -4 7 2 26 12 43 23 37 23 42 4 50 -9 3 -19
-3 -26 -17z m71 -177 c0 -5 -7 -10 -15 -10 -8 0 -15 5 -15 10 0 6 7 10 15 10
8 0 15 -4 15 -10z"/>
<path d="M7660 680 c0 -124 3 -150 14 -150 8 0 17 4 20 9 4 5 18 5 35 -2 41
-15 78 3 98 50 18 45 12 108 -14 135 -20 20 -67 26 -95 14 -16 -7 -18 -2 -18
43 0 44 -3 51 -20 51 -19 0 -20 -7 -20 -150z m115 14 c11 -12 15 -30 13 -62
-3 -51 -21 -68 -61 -58 -25 6 -27 10 -27 60 0 45 3 55 23 64 30 15 33 14 52
-4z"/>
<path d="M7986 790 c-6 -40 -6 -40 -51 -40 -38 0 -45 -3 -45 -20 0 -17 7 -20
41 -20 47 0 47 -2 -2 -109 -16 -35 -29 -64 -29 -66 0 -1 9 -5 19 -8 16 -4 24
6 44 52 14 31 31 75 38 99 12 40 15 43 43 40 l31 -3 -1 -64 c-1 -71 -18 -95
-61 -85 -18 5 -23 2 -23 -14 0 -44 92 -34 110 12 18 47 23 125 11 155 -12 28
-60 49 -82 35 -6 -3 -7 11 -3 35 6 37 4 41 -13 41 -16 0 -22 -9 -27 -40z"/>
<path d="M8365 821 c-15 -14 0 -31 33 -40 88 -22 109 -23 115 -2 4 16 -5 20
-70 33 -40 8 -76 12 -78 9z"/>
<path d="M9430 810 c0 -19 7 -20 92 -20 88 0 91 -1 69 -16 -19 -14 -30 -15
-59 -6 -65 20 -72 -8 -9 -37 l42 -19 -87 -1 c-71 -1 -88 -4 -88 -16 0 -12 15
-15 75 -15 l75 0 0 -71 0 -71 -31 6 c-25 5 -30 3 -27 -12 4 -19 37 -27 74 -18
23 6 24 10 24 86 l0 80 46 0 45 0 -20 -26 c-21 -27 -20 -44 3 -44 15 0 78 85
69 94 -3 3 -25 6 -47 6 -23 0 -49 6 -58 13 -15 12 -12 17 27 48 63 50 49 59
-96 59 -112 0 -119 -1 -119 -20z"/>
<path d="M10267 810 c-4 -16 -14 -20 -46 -20 -34 0 -41 -3 -41 -20 0 -16 7
-20 30 -20 39 0 38 -11 -6 -60 -31 -34 -34 -43 -24 -55 12 -14 17 -12 44 13
36 33 60 44 81 35 12 -4 6 -14 -25 -40 -30 -26 -40 -42 -40 -64 0 -45 33 -61
121 -57 65 3 74 5 77 23 3 19 -3 20 -75 20 -73 0 -78 2 -81 22 -2 14 4 26 17
33 19 9 21 8 21 -15 0 -18 5 -25 20 -25 16 0 20 7 20 38 0 36 2 38 50 57 47
18 62 36 41 49 -5 3 -28 -3 -52 -13 -38 -17 -46 -18 -60 -5 -8 8 -27 14 -42
14 -19 0 -25 4 -21 14 4 10 28 17 70 21 54 6 64 10 64 26 0 17 -5 19 -54 13
-52 -6 -55 -6 -49 15 4 16 1 21 -15 21 -11 0 -22 -8 -25 -20z"/>
<path d="M10710 805 c0 -25 -1 -25 -80 -25 -74 0 -80 -2 -80 -20 0 -19 4 -20
80 -14 85 7 105 -3 47 -24 -66 -24 -69 -99 -5 -125 l33 -13 -42 -19 c-34 -15
-40 -21 -31 -32 14 -17 54 -9 82 15 37 34 48 70 41 138 l-7 64 56 0 c43 0 56
3 56 15 0 12 -13 15 -55 15 -52 0 -55 1 -55 25 0 18 -5 25 -20 25 -15 0 -20
-7 -20 -25z m5 -145 c0 -18 -6 -26 -23 -28 -13 -2 -25 3 -28 12 -10 26 4 48
28 44 17 -2 23 -10 23 -28z"/>
<path d="M11063 813 c-77 -4 -83 -5 -83 -25 0 -19 4 -20 63 -15 l62 5 -30 -26
c-17 -15 -55 -48 -85 -74 -43 -36 -52 -49 -43 -59 10 -10 20 -6 48 15 52 40
96 50 140 32 29 -12 35 -20 35 -44 0 -44 -23 -59 -43 -28 -34 51 -127 38 -127
-19 0 -50 82 -71 155 -41 39 17 55 42 55 89 0 43 -33 76 -86 84 l-38 6 43 38
c30 25 42 42 38 53 -4 9 -10 15 -14 14 -4 -1 -45 -4 -90 -5z m35 -240 c2 -9
-7 -13 -27 -13 -21 0 -31 5 -31 16 0 19 51 16 58 -3z"/>
<path d="M11310 714 c0 -95 2 -105 18 -102 15 3 17 17 20 106 3 97 2 102 -18
102 -19 0 -20 -6 -20 -106z"/>
<path d="M11450 714 c0 -95 2 -105 18 -102 15 3 17 17 20 106 3 97 2 102 -18
102 -19 0 -20 -6 -20 -106z"/>
<path d="M14765 810 c-3 -5 15 -32 41 -60 l47 -50 -48 -51 c-35 -37 -44 -54
-36 -62 8 -8 25 3 66 43 30 30 55 61 55 70 0 15 -98 120 -112 120 -4 0 -10 -4
-13 -10z"/>
<path d="M8132 781 c-10 -6 -9 -16 9 -45 12 -21 27 -53 34 -72 10 -31 13 -33
30 -20 18 13 18 16 -14 80 -33 68 -37 71 -59 57z"/>
<path d="M8326 741 c-3 -14 -8 -49 -11 -77 -8 -65 11 -77 53 -34 53 52 152 50
152 -3 0 -40 -34 -61 -106 -65 -35 -2 -64 -6 -64 -7 0 -24 17 -35 54 -35 96 0
156 40 156 105 0 69 -90 99 -184 60 -17 -8 -19 -5 -14 32 5 34 3 42 -13 46
-13 4 -19 -2 -23 -22z"/>
<path d="M7490 737 c-35 -17 -64 -79 -56 -122 13 -66 101 -108 151 -72 27 21
10 36 -33 30 -28 -4 -43 0 -55 12 -29 28 -19 35 48 35 l65 0 0 34 c0 64 -67
109 -120 83z m70 -46 c15 -30 14 -31 -35 -31 -48 0 -55 9 -29 34 21 22 51 20
64 -3z"/>
<path d="M7132 673 c10 -38 23 -85 29 -105 8 -30 15 -38 33 -38 20 0 25 9 42
76 l19 76 18 -76 c17 -68 22 -76 43 -76 19 0 25 8 34 43 6 23 18 64 26 91 18
65 18 76 -5 76 -15 0 -22 -15 -38 -77 l-19 -76 -18 76 c-16 68 -20 77 -40 77
-20 0 -25 -10 -42 -76 l-19 -76 -18 76 c-17 67 -22 76 -42 76 l-22 0 19 -67z"/>
<path d="M9940 694 c0 -12 52 -94 60 -94 20 0 20 23 -1 60 -14 24 -30 40 -41
40 -10 0 -18 -3 -18 -6z"/>
<path d="M9781 603 c-14 -51 -14 -63 3 -63 14 0 36 49 36 81 0 34 -29 20 -39
-18z"/>
<path d="M11304 575 c-9 -23 3 -45 25 -45 21 0 33 22 25 45 -4 8 -15 15 -25
15 -11 0 -22 -7 -25 -15z"/>
<path d="M11444 575 c-9 -23 3 -45 25 -45 10 0 21 7 25 15 8 23 -4 45 -25 45
-11 0 -22 -7 -25 -15z"/>
</g>
</svg>
